{"glyphs":{"0":{"ha":593,"x_min":34,"x_max":560,"o":"m 141 61 q 50 261 78 130 q 34 456 34 351 q 37 554 34 503 q 84 842 48 716 q 166 977 116 951 q 195 983 180 983 q 230 975 212 983 q 245 968 237 971 q 260 965 254 966 q 353 932 302 958 q 442 874 405 906 q 474 836 456 861 q 506 781 492 810 q 552 610 543 701 q 560 467 560 519 q 554 370 560 414 q 517 198 542 281 q 427 47 489 104 q 327 -12 366 -11 q 287 -12 288 -12 q 141 61 212 -12 m 477 204 q 514 452 514 295 q 500 612 514 530 q 450 766 486 694 q 414 822 433 800 q 365 863 395 844 q 334 880 353 871 q 298 896 315 889 q 275 903 281 903 q 271 895 273 903 q 269 865 270 886 q 249 736 268 828 q 215 543 229 646 q 201 359 201 441 q 203 290 201 324 q 243 130 210 199 q 323 65 277 65 l 325 65 q 413 108 371 66 q 477 204 456 150 z "},"1":{"ha":434,"x_min":34,"x_max":400,"o":"m 87 1 q 77 8 79 5 q 75 18 75 11 q 83 35 75 29 q 114 44 90 41 q 186 50 138 47 l 219 52 l 217 73 q 214 104 216 82 q 209 152 212 127 q 201 235 204 194 q 191 359 197 275 q 178 575 180 491 q 176 700 176 659 q 179 799 176 758 q 181 836 180 823 q 182 853 182 849 l 182 855 q 175 848 180 855 q 159 830 168 841 q 121 788 140 806 q 90 764 102 770 q 65 758 77 758 l 63 758 q 42 766 50 758 q 34 784 34 775 q 60 810 34 799 q 195 930 111 831 q 245 969 222 962 q 281 977 269 977 q 317 967 300 977 q 361 908 346 952 q 376 757 376 852 l 376 749 q 367 545 375 648 q 351 376 358 441 q 336 256 345 317 q 316 84 323 168 l 314 56 l 349 58 q 373 58 366 58 q 385 57 381 58 q 392 51 388 55 q 400 37 399 43 q 400 30 400 31 q 395 12 400 20 q 387 6 392 9 q 376 2 381 3 q 328 -1 369 1 q 231 -3 286 -2 q 157 -4 184 -4 q 116 -4 130 -4 q 96 -2 102 -3 q 87 1 90 -1 z "},"2":{"ha":656,"x_min":34,"x_max":623,"o":"m 58 1 q 41 17 47 6 q 34 41 34 28 q 75 150 34 70 q 170 311 117 231 q 310 506 223 391 q 388 610 360 572 q 428 669 415 648 q 450 710 441 691 q 475 787 473 761 q 476 817 476 814 q 450 888 476 863 q 399 905 433 905 q 353 899 379 905 q 262 852 314 888 q 176 778 211 817 q 144 738 155 755 q 117 689 134 722 q 100 657 108 670 q 90 642 92 644 q 82 640 86 640 q 76 641 79 640 q 64 651 68 644 q 61 671 61 660 q 81 739 61 698 q 161 849 109 797 q 256 922 203 890 q 355 967 308 954 q 405 975 385 975 q 427 975 425 975 q 485 967 461 975 q 585 890 548 947 q 623 755 621 833 l 623 746 q 521 503 623 642 q 447 405 483 448 q 338 278 411 361 q 306 241 321 260 q 282 214 290 223 q 263 192 274 205 q 242 168 252 178 q 180 92 203 123 q 156 54 156 60 l 156 54 l 161 54 q 189 54 170 54 q 257 58 219 56 q 323 64 295 61 q 463 77 390 72 q 477 78 471 78 q 494 75 489 78 q 503 57 503 71 q 502 47 503 51 q 493 40 500 43 q 469 35 486 37 q 421 30 452 33 q 343 24 391 28 q 255 16 292 20 q 174 6 218 12 q 85 -3 115 -3 q 58 1 66 -3 z "},"3":{"ha":591,"x_min":34,"x_max":557,"o":"m 148 34 q 83 77 115 49 q 43 123 52 104 q 42 133 42 129 l 42 135 q 46 144 42 138 q 64 153 53 153 l 67 153 q 73 153 71 153 q 82 147 77 152 q 96 133 87 142 q 125 108 113 115 q 157 96 136 101 q 188 94 172 94 q 279 121 235 94 q 376 221 338 159 q 415 315 414 283 q 416 348 416 347 q 364 447 416 410 q 286 468 332 468 q 215 458 254 468 q 186 451 194 452 q 176 450 179 450 q 163 452 168 450 q 149 464 156 455 q 138 486 138 475 q 169 520 138 503 q 240 573 201 538 q 309 648 279 609 q 343 696 321 663 q 388 770 366 730 q 414 832 409 810 q 418 864 418 855 q 406 899 418 886 q 359 913 392 913 q 330 911 347 913 q 208 860 265 899 q 106 774 151 820 q 72 741 83 750 q 56 732 61 732 q 41 739 47 732 q 34 754 34 745 q 52 790 34 765 q 98 842 70 814 q 275 951 174 920 q 345 966 319 966 q 372 967 370 967 q 458 948 418 967 q 524 882 500 929 q 543 794 543 840 q 524 699 543 749 q 394 536 487 601 l 386 531 l 404 523 q 521 421 480 488 q 557 290 557 355 q 553 247 557 269 q 476 98 537 161 q 356 21 414 35 q 267 7 298 7 q 148 34 209 7 z "},"4":{"ha":735,"x_min":34,"x_max":735,"o":"m 527 -6 q 507 14 513 0 q 496 67 500 28 q 490 186 493 106 l 486 282 l 443 281 q 301 274 389 280 q 130 258 214 267 q 92 255 109 256 q 69 253 75 253 q 37 276 47 254 q 34 288 34 281 l 34 290 q 39 313 34 298 q 56 353 45 327 q 106 485 87 422 q 149 648 126 547 q 189 805 172 745 q 229 916 207 865 q 290 983 254 972 q 311 986 301 986 q 359 960 343 986 q 383 889 380 926 q 386 830 386 852 q 385 798 386 812 q 316 562 374 680 q 186 353 259 443 q 168 330 175 340 q 161 319 161 320 q 168 317 161 317 q 181 318 172 317 q 234 320 191 319 q 332 321 277 321 q 427 323 388 323 q 473 325 467 324 l 482 326 l 483 390 q 487 472 483 442 q 499 522 490 502 q 538 564 513 553 q 566 570 553 570 q 590 565 578 570 q 629 524 615 554 q 642 429 642 492 q 637 347 642 393 l 635 326 l 684 326 q 735 309 735 326 q 723 293 735 297 q 674 288 710 289 q 642 286 655 287 q 629 284 629 285 q 627 256 629 281 q 620 196 624 231 q 613 130 616 161 q 608 85 610 99 q 603 51 606 66 q 600 29 601 35 q 579 -1 594 12 q 549 -14 565 -14 q 539 -11 546 -14 q 527 -6 533 -9 z "},"5":{"ha":617,"x_min":34,"x_max":583,"o":"m 134 31 q 77 86 77 62 q 83 101 77 94 q 99 108 90 108 l 102 108 q 137 94 114 106 q 195 79 167 79 q 225 84 210 79 q 303 134 266 98 q 378 250 348 177 q 410 366 408 322 q 412 418 412 409 q 385 536 412 485 q 354 571 374 554 q 317 597 335 589 q 263 605 293 605 q 209 597 233 605 q 127 541 172 582 q 94 515 104 519 q 79 512 84 512 q 60 517 70 512 q 35 542 37 528 q 34 564 34 556 q 37 591 34 577 q 39 607 37 600 q 53 701 42 640 q 73 799 64 761 q 137 950 102 911 q 177 975 155 971 q 225 979 199 979 q 287 976 251 979 q 351 972 313 975 q 421 969 389 970 q 525 963 490 966 q 571 955 559 960 q 583 941 583 949 q 532 922 583 922 q 477 922 518 922 q 386 924 435 923 l 269 927 l 271 909 l 271 900 q 210 705 271 835 q 191 666 199 682 q 184 649 184 650 q 185 648 184 648 q 191 650 186 648 q 209 654 198 651 q 279 665 239 665 q 351 655 320 665 q 500 536 450 618 q 553 400 551 453 q 554 341 554 347 q 513 162 554 247 q 431 61 483 104 q 323 2 380 17 q 259 -7 290 -7 q 226 -4 242 -7 q 134 31 180 4 z "},"6":{"ha":608,"x_min":34,"x_max":574,"o":"m 293 1 q 138 99 199 18 q 51 299 67 199 q 34 467 34 399 q 42 578 34 524 q 124 833 66 732 q 267 965 182 933 q 308 974 291 973 q 327 974 324 974 q 372 968 354 974 q 446 917 410 956 q 499 843 473 888 q 531 773 525 799 q 532 764 532 768 q 519 739 532 745 q 513 737 516 737 q 500 743 507 737 q 477 779 491 752 q 449 824 463 806 q 383 866 413 866 q 375 865 379 866 q 317 817 342 859 q 274 718 292 775 q 246 609 256 661 q 234 530 236 557 l 235 530 q 239 530 236 530 l 248 535 q 360 561 300 561 q 381 560 370 561 q 504 505 452 554 q 569 385 564 441 q 574 309 574 328 q 548 167 574 236 q 448 33 514 79 q 331 -1 394 -1 q 293 1 313 -1 m 414 85 q 504 162 479 104 q 530 279 530 220 q 528 307 530 293 q 481 436 522 382 q 389 503 429 499 q 342 507 350 507 q 226 460 281 507 l 226 395 q 238 239 226 302 q 277 134 251 176 q 328 91 299 101 q 378 80 356 80 q 414 85 395 80 z "},"7":{"ha":570,"x_min":34,"x_max":536,"o":"m 151 73 q 164 131 153 102 q 186 186 175 161 q 197 211 193 200 q 199 214 198 212 l 203 224 q 208 239 205 233 q 213 257 213 251 q 211 262 213 261 q 202 264 209 264 q 172 260 193 264 q 136 257 151 258 q 106 267 115 257 q 97 286 97 277 q 98 294 97 290 q 131 309 104 307 q 177 312 150 311 l 238 313 l 259 364 q 326 528 294 448 q 369 641 357 608 q 401 792 401 735 q 391 844 401 824 q 330 898 369 886 q 254 909 292 909 q 235 909 245 909 q 146 898 186 905 q 68 890 95 890 q 45 892 53 890 q 36 903 38 897 q 34 913 34 909 q 36 922 34 918 q 52 937 39 930 q 98 952 66 943 q 220 976 174 974 q 273 977 265 977 q 414 947 347 977 q 534 766 523 896 q 536 732 536 750 q 533 677 536 707 q 517 581 528 627 q 479 462 505 534 q 431 337 454 390 l 422 318 l 456 318 q 495 315 484 318 q 507 302 507 311 l 507 300 q 497 289 507 293 q 451 283 485 285 q 420 281 433 282 q 406 279 408 280 q 386 241 404 277 q 340 153 367 205 q 331 133 336 145 q 308 86 321 112 q 279 37 295 60 q 235 -2 253 0 q 211 -5 216 -5 q 170 12 187 -5 q 151 66 151 31 l 151 73 z "},"8":{"ha":557,"x_min":34,"x_max":523,"o":"m 197 -7 q 95 60 125 11 q 66 165 66 109 q 66 180 66 172 q 104 303 71 245 q 134 349 118 327 q 149 367 143 359 q 154 376 154 375 q 150 383 154 378 q 139 394 145 388 q 59 514 84 448 q 34 639 34 580 q 35 667 34 653 q 64 784 41 723 q 117 888 86 845 q 185 951 149 932 q 248 971 222 971 q 267 968 258 971 q 278 966 273 966 l 281 966 q 303 972 288 968 q 370 983 336 983 q 402 981 386 983 q 486 941 452 972 q 522 882 522 906 q 523 856 523 857 q 507 764 523 810 q 469 680 489 715 q 407 581 438 623 q 328 493 375 540 q 303 467 313 478 q 293 455 293 456 q 300 445 293 454 q 319 425 308 436 q 379 361 350 395 q 421 304 408 326 q 460 179 460 238 q 460 166 460 172 q 410 62 452 105 q 322 4 369 19 q 241 -12 276 -12 q 197 -7 219 -12 m 303 525 q 440 709 399 635 q 471 781 458 743 q 483 848 483 820 q 480 878 483 863 q 423 937 472 919 q 375 942 402 943 q 323 935 347 942 q 306 929 311 931 q 298 923 300 926 q 294 913 296 920 q 284 891 292 907 q 264 854 276 874 q 219 749 233 798 q 205 642 205 701 q 210 583 205 605 q 229 536 215 561 q 251 499 240 514 q 266 484 262 484 l 267 484 q 278 497 268 486 q 303 525 289 509 m 252 54 q 332 104 325 74 q 340 145 340 134 q 304 231 340 184 q 279 260 296 241 q 241 297 261 278 q 205 331 221 317 q 188 345 190 345 q 177 334 186 345 q 158 310 168 324 q 139 283 148 296 q 109 173 109 233 q 138 81 109 113 q 212 49 168 49 q 252 54 230 49 z "},"9":{"ha":624,"x_min":34,"x_max":590,"o":"m 262 20 q 237 38 252 26 q 210 63 222 50 q 194 83 198 75 q 191 96 191 89 l 191 100 q 199 112 193 108 q 210 115 205 115 q 219 113 215 115 q 246 96 229 110 q 321 58 288 58 q 357 72 341 58 q 423 243 401 108 q 431 302 427 267 q 438 408 434 337 q 439 429 439 420 q 439 438 439 438 q 434 432 438 438 q 423 417 429 426 q 385 374 408 395 q 307 326 338 332 q 264 321 276 321 q 178 342 223 321 q 80 435 114 374 q 40 548 46 496 q 34 631 34 601 q 41 718 34 675 q 83 849 54 792 q 186 957 131 939 q 273 975 241 975 q 366 953 319 975 q 492 816 444 916 q 504 793 499 800 q 515 785 509 787 q 572 694 551 770 q 586 611 582 656 q 590 494 590 567 l 590 485 q 581 338 590 413 q 542 186 570 259 q 462 53 514 113 q 388 2 420 7 q 345 -3 357 -3 q 262 20 304 -3 m 381 454 q 412 498 401 475 q 434 561 427 528 q 441 644 440 593 q 446 713 442 690 q 458 759 450 737 l 464 774 l 451 802 q 391 872 425 855 q 331 889 357 889 q 296 883 313 889 q 224 814 252 869 q 191 693 192 745 q 190 636 190 641 q 219 475 190 542 q 272 415 248 416 q 298 414 295 414 q 381 454 340 414 z "},"\u0000":{"ha":339,"x_min":0,"x_max":0,"o":""}," ":{"ha":475,"x_min":0,"x_max":0,"o":""},"!":{"ha":243,"x_min":34,"x_max":210,"o":"m 111 224 q 89 248 97 229 q 75 309 80 267 q 35 778 44 543 q 34 808 34 793 q 36 868 34 838 q 45 933 39 913 q 81 989 58 974 q 124 1005 104 1005 q 141 1003 132 1005 q 190 959 170 996 q 210 806 210 913 l 210 785 q 195 528 208 661 q 174 321 183 395 q 174 313 174 317 q 163 256 169 273 q 148 231 158 239 q 133 223 140 224 q 122 222 125 222 q 111 224 116 222 m 50 48 q 76 109 50 90 q 127 127 102 127 q 153 124 140 127 q 195 93 183 115 q 206 51 206 72 q 205 40 206 45 q 185 -9 202 8 q 153 -30 169 -26 q 130 -33 138 -33 q 102 -27 115 -33 q 64 0 79 -19 q 50 48 50 19 z "},"\"":{"ha":499,"x_min":34,"x_max":465,"o":"m 99 718 q 77 713 89 713 l 74 713 q 55 717 63 713 q 34 749 36 726 l 34 755 q 46 816 34 777 q 58 853 52 833 q 68 888 64 874 q 81 929 75 917 q 98 952 87 942 q 145 972 120 972 q 168 970 151 972 q 203 935 186 967 q 210 906 210 920 q 203 876 210 895 q 183 833 197 857 q 180 827 182 831 q 133 749 151 772 q 99 718 115 725 m 355 696 q 332 691 345 691 q 310 696 319 691 q 290 728 291 705 l 290 734 q 302 795 290 756 q 313 832 307 812 q 323 867 319 853 q 336 908 330 896 q 353 930 342 921 q 400 951 376 951 q 424 948 406 951 q 459 913 441 945 q 465 886 465 900 q 459 854 465 874 q 439 812 452 835 q 435 806 437 809 q 388 727 406 751 q 355 696 371 704 z "},"#":{"ha":921,"x_min":34,"x_max":887,"o":"m 401 -12 q 382 9 385 -3 q 378 31 378 21 q 382 66 378 45 q 409 163 390 100 q 430 231 421 202 q 441 264 439 260 l 441 266 q 444 275 444 272 q 444 277 444 277 q 430 283 442 281 q 388 285 417 284 l 385 285 q 347 286 361 286 q 328 286 334 286 q 320 283 322 285 q 313 267 319 281 q 299 233 307 252 q 281 188 292 212 q 262 145 271 163 q 245 106 254 127 q 229 71 236 85 q 175 -7 201 2 q 153 -12 163 -12 q 114 16 128 -12 q 109 30 109 24 q 108 40 108 35 q 109 57 108 47 q 113 87 110 68 q 119 121 116 105 q 126 158 123 138 q 132 193 130 178 q 139 224 135 206 q 146 256 142 243 q 151 284 151 277 q 149 288 151 288 q 133 290 147 289 q 100 291 119 290 q 52 296 65 292 q 35 312 39 300 q 34 320 34 316 q 37 332 34 326 q 51 347 41 342 q 73 350 55 348 q 115 352 92 351 l 170 354 l 200 473 q 222 558 213 524 q 231 597 231 593 l 231 597 q 227 600 231 599 q 213 602 224 602 q 182 604 202 603 q 145 606 161 604 q 127 608 130 607 q 121 613 124 610 q 115 621 118 616 q 113 629 113 627 q 113 632 113 631 q 115 640 113 636 q 134 656 118 652 q 195 660 149 660 l 250 660 l 258 688 q 320 879 297 821 q 365 956 343 936 q 425 985 391 984 q 434 986 430 986 q 488 960 466 986 q 513 890 513 935 q 512 878 513 884 q 474 718 509 825 q 463 682 467 696 q 460 665 460 669 l 460 663 q 478 661 461 661 q 519 662 495 661 l 577 665 l 597 721 q 687 928 651 869 q 763 991 724 987 q 771 992 767 992 q 806 982 789 992 q 836 947 827 970 q 842 911 842 932 q 838 871 842 894 q 793 730 827 823 q 775 684 782 703 q 769 663 769 665 q 784 662 770 663 q 816 660 797 661 q 850 657 836 659 q 868 654 865 655 q 887 625 887 643 l 887 624 q 866 596 887 606 q 843 593 862 595 q 797 591 823 591 l 736 589 l 701 505 q 673 436 686 469 q 652 389 659 404 l 640 358 l 705 355 q 777 352 753 354 q 811 344 802 349 q 825 328 821 339 q 828 314 828 321 q 795 283 828 293 q 760 281 789 282 q 694 280 730 280 q 625 279 645 280 q 604 276 604 279 q 595 259 602 274 q 579 222 588 243 q 542 140 562 184 q 505 63 521 96 q 484 22 488 29 q 465 -1 475 9 q 447 -16 454 -11 q 427 -20 437 -20 l 424 -20 q 401 -12 411 -19 m 458 355 l 471 358 l 495 431 q 516 494 505 462 q 534 545 528 527 q 545 576 541 564 q 549 590 549 589 q 533 593 549 591 q 493 595 517 594 q 458 596 471 596 l 448 596 q 434 593 435 596 q 427 576 433 591 q 414 541 422 562 q 395 487 408 520 q 372 425 383 454 q 354 377 361 395 q 348 355 348 358 l 348 355 q 360 353 349 353 q 380 353 372 353 l 399 353 q 435 354 418 353 q 458 355 452 355 z "},"$":{"ha":541,"x_min":34,"x_max":507,"o":"m 288 -113 q 280 -100 283 -109 q 276 -73 277 -91 q 273 -24 275 -56 l 271 22 q 202 54 234 34 q 151 109 170 74 q 148 119 148 116 q 152 128 148 123 q 163 137 157 137 q 168 136 166 137 q 200 113 178 133 q 237 83 221 92 q 276 71 254 75 q 295 68 286 68 q 311 71 304 68 q 343 90 326 75 q 387 180 387 127 q 382 220 387 199 q 283 349 359 300 l 255 366 q 212 395 233 381 q 44 604 79 481 q 34 681 34 640 q 37 723 34 701 q 68 838 43 787 q 176 954 107 919 q 204 965 191 961 q 244 975 218 969 l 256 977 l 257 1025 q 257 1054 257 1043 q 259 1069 258 1064 q 261 1077 260 1074 q 267 1083 263 1080 q 290 1093 277 1093 q 298 1091 294 1093 q 321 1067 315 1086 l 321 1064 q 320 1050 321 1059 q 317 1021 319 1037 q 313 989 314 996 q 313 980 313 983 q 314 971 313 973 q 323 967 317 968 q 336 963 328 966 q 354 956 345 960 q 502 747 477 897 q 507 695 507 715 q 500 667 507 673 q 490 663 496 663 l 486 663 q 474 671 478 665 q 471 686 473 675 q 467 712 469 698 q 420 833 462 791 q 329 880 373 880 l 326 880 q 248 840 281 879 q 206 739 215 802 q 203 702 203 720 q 240 570 203 633 q 352 463 267 527 q 449 374 417 414 q 505 268 502 309 q 507 221 507 227 q 451 90 507 151 q 353 26 406 44 l 330 18 l 326 -34 q 322 -81 324 -65 q 318 -104 321 -98 q 312 -114 316 -111 q 300 -120 307 -120 q 288 -113 294 -120 z "},"%":{"ha":882,"x_min":34,"x_max":848,"o":"m 182 522 q 93 590 130 537 q 44 696 55 644 q 34 781 34 748 q 43 855 34 819 q 64 909 50 882 q 95 954 79 937 q 150 989 127 985 q 180 993 172 993 q 229 976 206 993 q 238 970 234 972 q 250 967 243 968 q 270 965 258 966 q 297 962 288 964 q 317 955 307 960 q 397 836 376 924 q 403 806 402 817 q 404 784 404 795 q 403 760 404 774 q 393 691 401 722 q 367 625 385 660 q 293 541 334 564 q 216 517 252 517 q 182 522 199 517 m 568 50 q 521 142 535 92 q 507 239 507 192 q 536 371 507 309 q 591 438 562 422 q 641 454 621 454 q 674 447 658 454 q 713 439 689 440 q 839 313 803 435 q 847 262 846 287 q 848 225 848 238 q 846 187 848 205 q 831 127 842 161 q 809 71 821 93 q 726 -16 762 -13 q 684 -18 689 -18 q 568 50 621 -18 m 779 104 q 805 209 801 144 q 806 224 806 217 q 791 313 806 273 q 744 379 774 359 q 720 390 726 390 l 720 390 q 713 374 714 389 q 708 356 712 367 q 700 336 705 345 q 685 307 694 325 q 673 285 679 295 q 649 215 657 252 q 642 152 642 177 q 645 113 642 132 q 673 56 655 66 q 703 46 690 46 q 729 53 715 46 q 779 104 757 67 m 146 -8 q 138 3 140 -2 q 136 18 136 7 q 145 49 136 35 q 177 113 149 57 q 243 245 205 168 q 371 498 322 403 q 471 686 420 593 q 595 897 553 833 q 663 975 637 961 q 701 985 683 985 q 726 979 713 985 q 760 930 754 966 q 760 921 760 926 q 754 885 760 904 q 726 819 747 861 q 307 156 636 640 q 248 66 273 105 q 216 18 222 27 q 171 -18 194 -18 q 146 -8 159 -18 m 338 652 q 361 726 361 695 q 361 758 361 757 q 341 857 361 816 q 292 913 320 896 q 273 923 279 923 q 270 922 271 923 q 264 899 265 920 q 261 881 263 889 q 254 860 259 872 q 239 829 249 848 q 206 752 214 779 q 197 692 197 724 q 219 615 199 637 q 262 594 240 594 q 279 597 271 594 q 338 652 312 606 z "},"&":{"ha":541,"x_min":34,"x_max":507,"o":"m 286 -100 q 272 -33 277 -92 l 270 -14 l 255 -14 q 148 20 193 -14 q 83 100 103 54 q 64 192 64 147 q 65 215 64 203 q 109 324 71 273 q 160 374 132 353 q 177 386 170 380 q 184 392 184 391 q 178 398 184 393 q 161 410 171 404 q 48 569 82 469 q 34 663 34 616 q 43 740 34 702 q 132 890 65 824 q 226 950 176 935 q 235 953 231 951 q 254 960 248 957 q 261 965 260 962 q 261 970 261 968 q 260 979 261 973 q 260 985 260 982 q 256 1025 257 1010 q 254 1048 254 1040 q 256 1059 254 1055 q 261 1066 258 1063 q 270 1073 264 1070 q 279 1077 275 1076 q 285 1078 282 1078 q 290 1077 288 1078 q 300 1069 294 1075 l 312 1059 l 315 962 l 335 958 q 414 922 375 949 q 471 855 453 893 q 494 773 490 817 q 496 721 496 747 q 477 576 496 648 q 459 527 467 539 q 437 514 452 514 q 422 531 422 514 q 429 561 422 543 q 446 642 441 600 q 451 715 451 684 l 451 729 q 417 817 446 791 q 355 844 389 844 q 338 842 347 844 q 258 785 295 834 q 220 691 234 749 q 205 593 205 633 q 206 576 205 584 q 258 454 214 496 q 318 417 292 421 q 369 401 347 412 q 400 376 392 389 q 406 358 406 366 q 398 340 406 348 q 381 331 395 337 q 349 318 367 324 q 290 292 309 304 q 248 259 270 281 q 192 151 192 203 l 192 144 q 259 62 195 89 q 317 52 289 52 q 385 68 351 52 q 457 138 436 92 q 474 168 468 161 q 488 175 479 175 q 503 168 498 175 q 507 155 507 161 q 506 148 507 151 q 485 110 503 134 q 446 65 468 86 q 349 4 404 24 l 321 -6 l 318 -51 q 311 -100 315 -94 q 300 -105 307 -105 l 298 -105 q 286 -100 291 -105 z "},"'":{"ha":244,"x_min":34,"x_max":210,"o":"m 99 718 q 77 713 89 713 l 74 713 q 55 717 63 713 q 34 749 36 726 l 34 755 q 46 816 34 777 q 58 853 52 833 q 68 888 64 874 q 81 929 75 917 q 98 952 87 942 q 146 972 121 972 q 168 970 151 972 q 203 935 186 967 q 210 906 210 920 q 203 876 210 895 q 183 833 197 857 q 180 827 182 831 q 133 749 151 772 q 99 718 116 725 z "},"(":{"ha":448,"x_min":34,"x_max":414,"o":"m 321 -132 q 298 -124 313 -130 q 268 -111 283 -118 q 234 -91 247 -100 q 201 -62 221 -81 q 43 290 84 55 q 35 379 37 332 q 34 450 34 427 q 37 530 34 494 q 92 789 47 657 q 249 1065 157 980 q 332 1109 293 1107 q 341 1109 337 1109 q 347 1109 345 1109 q 356 1106 352 1109 q 366 1098 359 1103 q 374 1089 372 1093 q 378 1081 377 1085 q 378 1072 378 1077 q 378 1061 378 1067 l 378 1056 q 375 1034 378 1045 q 359 992 372 1020 q 321 909 347 964 q 251 734 275 813 q 210 552 227 655 q 197 448 200 488 q 194 339 194 408 q 205 173 194 238 q 245 54 217 108 q 266 16 256 31 q 296 -18 277 1 q 326 -43 311 -34 q 372 -64 342 -53 q 393 -74 383 -69 q 406 -83 402 -79 q 414 -102 414 -92 q 413 -108 414 -105 q 396 -130 410 -121 q 371 -136 384 -135 q 355 -136 358 -136 q 321 -132 336 -136 z "},")":{"ha":414,"x_min":34,"x_max":380,"o":"m 54 -136 q 34 -110 34 -125 l 34 -106 q 64 -79 37 -89 q 97 -65 85 -73 q 122 -43 109 -57 q 169 39 145 -16 q 203 148 192 94 q 222 412 222 254 q 221 501 222 454 q 216 605 219 568 q 203 696 212 643 q 107 987 179 851 q 87 1026 94 1011 q 78 1048 81 1040 q 76 1062 76 1056 q 94 1105 76 1097 q 125 1113 113 1113 q 168 1101 144 1113 q 277 979 229 1069 q 352 761 325 890 q 380 484 380 631 l 380 477 q 293 59 380 263 q 225 -58 265 -9 q 142 -127 188 -106 q 117 -136 127 -134 q 92 -140 107 -139 l 85 -140 q 54 -136 63 -140 z "},"*":{"ha":452,"x_min":34,"x_max":418,"o":"m 200 573 q 182 595 189 579 q 168 644 175 612 l 161 683 l 150 669 q 122 636 136 651 q 100 617 108 622 q 81 612 90 612 q 61 619 70 612 q 49 644 49 629 q 50 654 49 649 q 64 679 54 667 q 102 710 75 690 q 104 712 103 711 q 141 740 130 731 q 154 754 152 749 q 155 764 155 760 q 154 772 155 768 l 154 773 q 150 791 153 784 q 135 806 147 798 q 94 832 122 814 q 43 871 52 859 q 34 890 34 883 q 42 905 34 899 q 59 913 50 913 q 70 911 64 913 q 117 880 87 905 q 135 866 127 871 q 144 860 143 860 q 146 869 145 860 q 146 892 146 879 q 152 936 146 920 q 170 960 157 951 q 204 972 186 972 q 218 970 211 972 q 256 938 243 964 q 260 919 259 930 q 262 886 262 908 q 262 858 262 869 q 263 847 262 847 q 277 857 264 847 q 307 880 290 866 q 357 916 340 907 q 384 926 374 926 l 387 926 q 394 923 392 925 q 396 913 396 920 l 396 910 q 392 897 396 903 q 370 872 387 888 q 319 827 353 856 q 279 790 296 806 q 263 774 263 775 q 274 764 263 773 q 301 743 286 755 q 413 645 405 666 q 418 628 418 635 q 410 618 418 620 q 406 617 408 617 q 396 619 401 617 q 371 635 388 623 q 324 668 354 646 q 282 699 300 687 q 264 711 265 711 q 262 696 263 711 q 262 658 262 680 q 261 623 262 635 q 259 603 260 610 q 255 591 258 596 q 237 570 247 573 q 222 567 227 567 q 200 573 211 567 z "},"+":{"ha":631,"x_min":34,"x_max":597,"o":"m 295 206 q 276 232 282 213 q 264 302 269 252 q 257 368 260 342 q 252 406 254 393 q 248 425 250 420 q 245 432 247 431 q 230 435 243 435 q 186 436 217 436 q 134 438 161 437 q 90 441 107 439 q 61 445 71 444 q 48 449 52 446 q 41 454 43 451 q 34 469 34 462 q 41 484 34 477 q 47 490 43 488 q 58 494 51 492 q 78 496 65 495 q 117 499 91 498 q 169 502 142 501 q 213 504 195 503 q 233 507 231 505 q 233 512 233 507 l 233 517 q 231 541 233 528 q 228 614 228 575 l 228 627 q 233 694 228 674 q 284 763 245 747 q 315 770 300 770 q 353 758 335 770 q 396 690 385 737 q 400 648 399 671 q 400 618 400 625 q 398 557 400 587 l 395 519 l 474 518 q 527 517 509 518 q 553 515 545 517 q 568 510 562 513 q 597 470 597 495 q 568 431 597 446 q 475 421 541 421 q 438 422 458 421 q 406 423 418 422 q 388 423 394 423 q 380 421 382 422 q 378 418 378 420 q 375 393 377 414 q 370 342 372 372 q 360 263 364 290 q 352 226 357 237 q 338 209 347 216 q 322 203 330 203 q 311 203 314 203 q 295 206 302 203 z "},",":{"ha":239,"x_min":34,"x_max":205,"o":"m 64 79 q 60 104 60 92 q 76 145 60 127 q 117 171 100 171 q 136 172 135 172 q 188 136 169 172 q 205 42 205 96 q 204 14 205 28 q 159 -110 198 -58 q 106 -153 125 -151 q 83 -155 87 -155 q 43 -136 56 -155 q 34 -109 34 -125 q 41 -75 34 -94 q 65 -12 61 -35 q 70 27 70 12 q 64 79 70 50 z "},"-":{"ha":547,"x_min":34,"x_max":513,"o":"m 263 374 q 215 378 250 376 q 142 381 180 380 q 85 383 105 383 q 59 384 68 384 q 46 386 50 385 q 40 392 43 388 q 34 405 34 398 q 41 420 34 412 q 47 426 44 424 q 57 428 50 427 q 79 429 64 429 q 121 430 93 429 q 178 434 149 431 q 363 439 244 439 q 429 439 404 439 q 467 439 454 439 q 486 437 479 438 q 494 434 492 436 q 513 408 513 424 l 513 406 q 493 380 512 389 q 478 376 488 378 q 444 374 467 375 q 377 374 420 374 q 301 374 333 374 q 263 374 269 374 z "},".":{"ha":225,"x_min":34,"x_max":191,"o":"m 95 1 q 34 81 34 18 l 34 84 q 60 139 37 119 q 112 158 83 158 l 114 158 q 170 132 144 157 q 191 79 191 107 q 191 68 191 74 q 162 17 185 35 q 114 -1 139 -1 q 95 1 105 -1 z "},"/":{"ha":587,"x_min":34,"x_max":553,"o":"m 45 -74 q 34 -44 34 -64 l 34 -41 q 51 28 35 -19 q 101 161 67 76 q 253 518 165 318 q 413 872 340 718 q 502 1048 485 1027 q 521 1057 511 1057 q 543 1046 532 1057 q 551 1036 549 1041 q 553 1019 553 1030 q 550 993 553 1008 q 536 950 547 978 q 502 870 525 922 q 441 732 479 818 q 342 505 387 610 q 208 187 298 400 q 158 72 178 117 q 127 0 139 26 q 108 -41 115 -27 q 96 -61 101 -55 q 86 -72 92 -68 q 63 -84 74 -84 q 45 -74 54 -84 z "},":":{"ha":225,"x_min":34,"x_max":191,"o":"m 95 1 q 34 80 34 18 l 34 84 q 60 139 37 119 q 112 158 83 158 l 114 158 q 170 132 144 157 q 191 79 191 107 q 191 68 191 74 q 162 17 185 35 q 114 -1 139 -1 q 95 1 105 -1 m 95 657 q 34 737 34 674 l 34 741 q 60 795 37 777 q 112 814 83 814 l 114 814 q 170 789 144 814 q 191 736 191 764 q 191 725 191 730 q 162 673 185 691 q 114 655 139 655 q 95 657 105 655 z "},";":{"ha":239,"x_min":34,"x_max":205,"o":"m 64 79 q 60 104 60 92 q 76 145 60 127 q 117 171 100 171 q 136 172 135 172 q 188 136 169 172 q 205 42 205 96 q 204 14 205 28 q 159 -110 199 -58 q 106 -153 125 -151 q 83 -155 87 -155 q 43 -136 56 -155 q 34 -109 34 -125 q 41 -75 34 -94 q 65 -12 60 -35 q 70 27 70 12 q 64 79 70 50 m 102 657 q 41 739 41 674 l 41 741 q 67 795 44 777 q 119 814 90 814 l 121 814 q 177 789 152 814 q 199 736 199 764 q 198 725 199 730 q 169 673 193 691 q 121 655 146 655 q 102 657 112 655 z "},"<":{"ha":394,"x_min":34,"x_max":360,"o":"m 246 85 q 206 120 227 102 q 174 148 186 138 q 93 228 134 182 q 40 301 53 274 q 34 331 34 315 q 35 340 34 335 q 50 397 37 361 q 168 646 95 523 q 225 734 203 709 q 269 765 247 759 q 292 768 280 768 q 311 766 301 768 q 344 744 332 760 q 360 695 360 722 q 359 677 360 686 q 316 581 352 639 q 243 473 275 515 q 165 386 212 432 l 113 333 l 121 321 q 147 286 128 309 q 188 239 166 263 q 210 215 198 229 q 231 191 222 201 q 254 164 239 181 q 283 132 269 147 q 308 103 297 116 q 321 85 319 90 q 328 66 328 75 q 326 57 328 62 q 304 45 321 45 q 294 47 299 45 q 277 58 288 50 q 246 85 267 66 z "},"=":{"ha":556,"x_min":34,"x_max":522,"o":"m 263 546 q 215 549 250 547 q 142 553 180 551 q 85 555 105 555 q 59 556 68 555 q 46 558 50 557 q 40 564 43 560 q 34 577 34 570 q 41 591 34 584 q 47 597 43 595 q 57 600 50 600 q 79 600 64 600 q 121 602 93 600 q 178 606 149 604 q 363 611 244 611 q 429 611 404 612 q 467 611 454 611 q 486 609 479 610 q 495 606 492 608 q 513 579 513 595 l 513 578 q 493 551 512 561 q 478 548 488 549 q 444 546 467 547 q 377 545 420 546 q 301 545 333 545 q 263 546 269 545 m 273 361 q 224 365 260 363 q 152 369 189 367 q 95 370 115 370 q 68 372 77 371 q 56 374 60 372 q 50 379 52 376 q 43 392 43 385 q 50 407 43 399 q 56 413 53 411 q 67 415 60 415 q 89 416 74 416 q 131 417 103 416 q 187 421 159 418 q 373 427 254 426 q 410 427 393 427 q 438 427 426 427 q 476 426 463 427 q 495 425 489 426 q 505 421 501 423 q 522 395 522 411 l 522 393 q 503 367 522 376 q 487 363 498 365 q 453 362 477 362 q 387 361 429 361 q 310 361 342 361 q 273 361 278 361 z "},">":{"ha":368,"x_min":34,"x_max":334,"o":"m 124 62 q 115 85 115 72 q 115 94 115 90 q 127 118 117 99 q 153 163 138 138 q 222 295 212 261 q 225 306 224 301 q 222 317 225 310 q 211 340 218 325 q 190 377 203 353 q 163 425 176 401 q 126 492 149 449 q 82 576 104 534 l 52 635 q 34 701 34 673 q 36 719 34 711 q 62 756 45 752 q 83 760 79 760 q 136 736 108 760 q 187 671 158 718 q 245 562 216 623 q 300 437 274 498 q 330 357 326 376 q 334 334 334 347 q 325 292 334 315 q 260 181 310 255 q 205 102 226 130 q 171 65 184 75 q 144 56 158 56 q 124 62 130 56 z "},"?":{"ha":563,"x_min":34,"x_max":529,"o":"m 233 206 q 203 243 215 214 q 178 380 178 311 q 196 496 178 438 q 233 581 212 544 q 304 684 254 618 q 375 790 357 753 q 393 859 393 827 l 393 864 q 332 930 391 930 q 309 928 321 930 q 232 895 277 921 q 159 840 188 869 q 125 796 144 823 q 93 744 107 769 q 79 709 79 718 q 74 696 79 703 q 62 690 68 690 q 47 693 52 690 q 38 703 42 696 q 34 726 34 713 q 50 788 34 751 q 121 892 75 844 q 215 963 161 932 q 316 1003 269 994 q 357 1007 337 1007 q 444 985 404 1007 q 522 884 502 954 q 529 827 529 856 q 521 762 529 795 q 472 648 505 699 q 423 579 452 616 q 328 438 368 513 q 282 275 288 363 q 279 235 281 249 q 273 215 277 221 q 262 206 269 209 q 248 202 253 202 q 233 206 241 202 m 176 52 q 202 106 179 87 q 254 125 225 125 l 256 125 q 311 100 287 125 q 334 47 334 75 q 326 12 334 30 q 283 -30 306 -26 q 254 -34 261 -34 q 204 -17 227 -34 q 176 50 176 5 l 176 52 z "},"@":{"ha":937,"x_min":34,"x_max":903,"o":"m 357 -3 q 308 8 329 1 q 263 28 287 16 q 62 279 121 106 q 34 461 34 370 q 45 574 34 517 q 178 836 73 722 q 346 952 264 924 q 490 980 428 980 q 574 970 532 980 q 768 859 677 947 q 881 674 860 764 q 903 532 903 585 q 879 389 903 460 q 835 306 865 347 q 775 250 806 264 q 724 235 745 235 q 673 248 700 235 q 617 296 644 263 q 578 366 591 329 q 573 376 575 372 q 570 380 571 380 q 567 372 570 378 q 559 357 564 366 q 519 288 543 319 q 475 245 496 256 q 432 235 454 235 q 382 247 408 235 q 339 281 362 257 q 304 328 316 305 q 279 436 279 379 q 280 450 279 444 q 345 610 285 545 q 464 665 395 665 q 475 664 470 665 q 519 656 500 663 q 560 633 538 649 q 572 625 567 629 q 578 622 577 622 l 581 627 q 589 638 585 631 q 613 666 600 653 q 637 683 626 678 q 663 688 650 688 q 680 686 671 688 q 718 663 702 680 q 735 634 731 649 q 739 585 739 620 q 738 554 739 566 q 734 526 737 542 q 723 480 730 509 q 712 434 715 450 q 708 405 709 418 q 707 371 707 391 q 708 333 707 345 q 712 316 709 322 q 739 300 722 300 q 748 301 743 300 q 800 334 772 307 q 833 384 817 352 q 857 449 849 416 q 865 519 865 481 q 861 577 865 547 q 823 707 851 649 q 704 843 772 804 q 564 882 635 882 q 544 881 554 882 q 387 828 463 875 q 256 702 311 782 q 184 546 201 623 q 167 412 167 469 q 174 330 167 371 q 247 153 189 233 q 334 81 284 104 q 442 54 387 54 q 526 69 484 54 q 557 80 542 75 q 581 90 573 85 q 608 98 597 98 q 624 90 619 98 q 628 81 628 85 q 625 72 628 78 q 571 34 616 56 q 482 0 527 12 q 412 -8 448 -8 q 357 -3 385 -8 m 489 350 q 518 387 503 363 q 545 435 533 410 q 553 453 551 446 q 556 474 555 461 q 557 511 557 486 l 558 564 l 548 569 q 536 573 544 571 q 520 575 528 574 l 513 575 q 503 574 507 575 q 492 568 498 573 q 457 509 471 551 q 449 459 449 482 q 448 433 448 437 q 453 368 448 397 q 469 335 458 335 q 477 339 471 335 q 489 350 483 343 z "},"A":{"ha":611,"x_min":34,"x_max":571,"o":"m 100 6 q 62 46 75 18 q 49 107 56 62 q 39 206 42 151 q 34 357 34 274 l 34 378 q 47 574 35 474 q 91 761 60 673 q 174 907 121 848 q 269 971 234 970 q 305 972 304 972 q 428 895 372 972 q 489 770 461 846 q 543 543 522 679 q 568 322 565 406 q 571 207 571 237 q 558 43 571 113 q 528 7 549 7 q 502 40 507 7 q 500 79 500 59 q 503 138 500 108 q 506 210 506 175 l 479 210 q 353 205 425 210 q 203 196 262 201 l 203 125 q 202 77 202 93 q 200 54 201 61 q 195 41 198 46 q 160 6 179 14 q 129 -1 141 -1 q 100 6 115 -1 m 505 254 l 505 254 q 509 282 509 254 q 507 336 509 302 q 397 817 488 677 q 345 865 365 865 q 339 863 342 865 q 300 803 317 854 q 282 749 291 778 q 267 698 273 721 q 222 476 240 597 q 203 281 203 355 l 203 239 q 312 245 258 242 q 409 251 360 249 q 505 254 457 254 z "},"B":{"ha":725,"x_min":37,"x_max":713,"o":"m 203 33 l 191 43 l 184 31 q 146 9 172 9 q 110 26 121 9 q 96 91 99 44 q 67 433 83 262 q 39 758 52 595 q 37 804 37 782 q 101 953 37 923 q 129 961 117 961 q 142 962 140 962 q 176 956 161 962 q 238 871 221 934 q 243 805 243 849 q 233 630 243 741 q 228 557 230 587 q 226 526 226 527 q 231 540 227 526 q 243 576 236 555 q 302 741 263 647 q 397 907 340 834 q 479 978 434 954 q 544 994 513 994 q 598 981 572 994 q 684 892 652 954 q 713 772 713 833 q 711 738 713 755 q 660 589 702 659 q 599 506 631 540 q 515 438 566 472 q 490 421 500 428 q 479 412 480 414 q 483 410 479 412 q 493 406 487 408 q 560 371 526 395 q 614 319 594 347 q 656 202 656 258 q 654 181 656 191 q 594 67 645 116 q 471 -7 544 18 q 383 -20 431 -20 q 332 -17 359 -20 q 203 33 256 -7 m 300 414 q 517 615 440 464 q 558 779 558 693 l 558 793 q 549 866 558 836 q 527 901 540 899 q 512 903 515 903 q 452 867 490 903 q 305 584 370 785 q 290 533 299 564 q 275 477 281 503 q 271 464 273 470 q 262 432 266 444 q 257 412 259 419 q 256 402 256 405 q 256 399 256 399 q 258 400 257 399 q 260 401 259 400 q 275 406 263 401 q 300 414 286 410 m 385 66 q 455 104 429 82 q 498 162 481 126 q 518 212 515 196 q 522 237 522 227 q 519 256 522 247 q 451 336 507 311 q 378 351 418 351 q 311 341 347 351 q 279 329 296 337 q 248 313 262 321 q 233 301 235 304 q 227 272 233 298 q 215 210 222 246 l 198 125 q 264 70 222 82 q 332 58 306 58 q 385 66 359 58 z "},"C":{"ha":585,"x_min":20,"x_max":559,"o":"m 52 233 q 20 452 20 331 q 22 508 20 479 q 82 783 30 663 q 185 920 121 869 q 288 974 249 970 q 334 977 327 977 q 447 934 395 977 q 536 774 506 886 q 553 682 546 732 q 559 601 559 631 l 559 595 q 553 557 558 568 q 537 547 549 547 q 525 552 529 547 q 518 573 521 557 q 515 621 516 589 q 505 705 512 671 q 481 774 497 739 q 417 860 448 849 q 372 870 387 870 q 315 850 343 870 q 245 756 273 819 q 205 610 220 696 q 190 477 190 525 q 189 426 189 429 q 208 258 189 337 q 271 125 227 176 q 337 81 309 83 q 372 79 366 79 q 458 106 418 79 q 492 142 477 121 q 532 177 515 177 q 539 176 536 177 q 552 165 548 172 q 556 151 556 157 q 555 146 556 149 q 549 132 555 143 q 534 108 543 121 q 493 58 516 78 q 332 -5 412 -5 q 314 -5 323 -5 q 156 69 226 4 q 52 233 85 134 z "},"D":{"ha":751,"x_min":43,"x_max":711,"o":"m 315 33 q 234 93 268 59 q 219 107 226 102 q 212 113 213 113 q 210 109 211 113 q 208 100 209 105 q 196 71 205 85 q 175 50 186 56 q 149 43 162 43 q 132 45 140 43 q 98 71 111 52 q 80 180 88 93 q 65 378 71 267 q 54 578 59 488 q 49 686 51 653 q 43 808 43 768 l 43 815 q 49 882 43 854 q 139 968 71 965 q 231 869 210 966 q 234 845 233 857 q 235 810 235 832 q 234 749 235 788 q 224 503 231 618 q 223 488 223 494 q 225 479 223 479 q 233 503 227 479 q 256 578 241 528 q 286 674 271 627 q 308 741 300 722 q 368 877 343 833 q 405 924 383 902 q 449 956 427 945 q 505 968 477 968 q 531 966 518 968 q 603 924 571 956 q 703 681 680 846 q 711 558 711 621 q 696 386 711 474 q 592 113 670 233 q 493 18 539 33 q 421 3 446 3 q 315 33 371 3 m 509 812 q 486 871 498 863 q 469 880 474 880 q 418 839 450 880 q 290 528 354 751 q 232 259 258 414 l 218 181 l 236 165 q 294 114 274 130 q 332 90 315 98 q 398 73 369 73 q 446 87 425 73 q 511 189 490 117 q 537 331 533 260 q 541 451 541 401 q 539 538 541 494 q 526 704 534 631 q 509 812 517 778 z "},"E":{"ha":546,"x_min":31,"x_max":562,"o":"m 92 151 q 38 352 54 235 q 31 450 32 404 q 31 507 31 496 q 35 630 31 576 q 57 802 44 739 q 92 906 70 865 q 142 964 115 953 q 212 976 170 976 l 217 976 q 460 980 315 979 l 479 980 q 509 979 497 980 q 534 974 526 978 q 550 962 543 970 q 558 941 558 951 q 555 928 558 935 q 522 904 548 912 q 497 899 512 900 q 458 899 481 899 l 431 899 q 369 900 400 899 q 321 903 337 901 q 267 907 287 907 q 256 907 260 907 q 232 896 236 905 q 229 871 229 887 l 229 866 l 229 860 l 229 852 q 222 700 229 785 q 214 592 218 657 q 210 487 211 528 q 209 430 209 446 q 210 407 209 413 l 212 395 l 322 395 q 392 394 366 395 q 430 392 417 394 q 450 388 444 391 q 460 379 456 385 q 466 366 466 372 q 467 358 467 359 q 463 341 467 349 q 406 320 455 320 q 359 323 386 320 q 244 329 302 329 l 214 329 l 216 304 q 224 247 218 279 q 237 188 229 215 q 284 93 257 104 q 326 82 311 82 q 413 111 363 82 q 463 146 437 125 q 502 184 488 168 q 512 198 507 192 q 520 208 517 205 q 535 213 526 213 l 537 213 q 555 207 548 213 q 561 189 561 199 q 556 173 562 178 q 541 157 553 171 q 512 124 528 143 q 455 63 479 87 q 347 -4 387 1 q 297 -8 307 -8 q 190 26 240 -8 q 92 151 130 68 z "},"F":{"ha":543,"x_min":45,"x_max":632,"o":"m 109 7 q 78 38 87 16 q 68 112 70 60 q 50 488 54 368 q 45 681 45 608 q 46 757 45 722 q 52 862 47 828 q 66 916 56 895 q 135 968 92 968 q 148 967 141 968 q 177 966 155 966 q 235 967 199 966 q 364 971 300 970 q 474 972 429 972 l 503 972 q 575 970 560 972 q 632 921 632 962 q 602 882 632 896 q 531 875 587 875 q 301 888 454 875 q 245 892 265 891 q 218 893 224 893 l 214 893 l 214 884 q 217 865 215 876 q 221 732 221 835 q 218 515 220 629 q 214 336 216 401 q 214 299 214 300 l 245 299 q 317 301 274 300 q 374 303 353 302 q 406 303 395 303 q 422 302 417 303 q 429 299 427 301 q 442 277 442 290 q 439 266 442 272 q 434 257 437 261 q 427 250 431 252 q 275 239 415 244 q 208 233 210 237 q 206 207 208 231 q 203 149 205 182 q 200 81 202 105 q 193 44 197 56 q 181 22 189 31 q 159 6 172 13 q 134 0 146 0 q 122 2 129 0 q 109 7 115 4 z "},"G":{"ha":667,"x_min":16,"x_max":641,"o":"m 170 55 q 52 232 87 127 q 16 448 16 337 l 16 469 q 58 702 18 591 q 169 887 97 812 q 273 958 222 941 q 355 974 323 974 q 417 964 387 974 q 517 871 478 943 q 549 783 538 828 q 560 715 560 738 q 559 700 560 706 q 554 690 557 692 q 546 688 552 688 q 531 696 536 688 q 521 730 526 705 q 468 850 505 817 q 395 882 431 882 l 393 882 q 323 859 357 882 q 263 802 290 836 q 185 625 199 719 q 171 477 171 532 q 189 312 171 395 q 256 153 212 208 q 353 98 301 98 l 359 98 q 456 165 414 101 q 503 368 496 230 q 506 412 504 393 q 508 435 507 431 l 509 436 l 508 437 q 505 439 508 439 q 493 439 501 439 q 472 439 486 439 q 438 439 458 439 q 389 437 406 437 q 366 438 373 437 q 355 442 359 439 q 341 457 341 450 q 342 462 341 460 q 371 476 348 472 q 440 486 394 480 q 526 495 487 491 q 576 498 564 498 l 580 498 q 624 468 611 494 q 639 414 637 442 q 641 368 641 387 q 640 345 641 356 l 640 326 q 632 141 640 227 q 614 28 625 56 q 574 -2 598 -2 q 534 29 549 -2 q 521 85 526 47 q 517 115 519 102 q 515 130 515 127 l 515 130 q 511 127 514 130 q 502 112 507 121 q 416 22 466 46 q 320 -3 366 -3 q 288 0 304 -3 q 170 55 224 9 z "},"H":{"ha":713,"x_min":43,"x_max":666,"o":"m 551 3 q 528 41 534 13 q 518 106 524 61 q 510 197 513 151 q 507 232 509 220 q 505 248 506 244 q 502 252 503 252 l 501 252 q 458 250 498 251 q 363 248 419 249 q 264 245 306 246 q 216 243 222 243 l 202 241 l 200 201 q 191 105 197 157 q 179 36 184 54 q 139 4 166 4 q 96 47 106 4 q 84 135 90 73 q 74 267 78 196 q 60 503 68 378 q 47 690 52 627 q 43 793 43 744 l 43 808 q 51 891 45 865 q 138 975 73 975 q 229 879 210 975 q 234 788 234 850 q 228 651 233 726 q 219 525 223 596 q 211 392 214 453 q 208 317 208 332 l 208 294 l 346 294 q 446 294 403 294 q 494 292 489 293 l 505 290 l 503 318 q 500 363 503 330 q 496 435 498 397 q 491 524 494 473 q 484 614 487 575 q 477 746 477 705 q 477 794 477 787 q 482 882 477 858 q 570 969 505 969 q 602 964 589 969 q 629 945 615 958 q 662 872 657 920 q 666 789 666 825 q 659 621 666 724 q 651 515 655 573 q 645 415 647 456 q 627 135 634 218 q 611 30 620 52 q 591 2 603 8 q 571 -3 578 -3 q 551 3 561 -3 z "},"I":{"ha":340,"x_min":-14,"x_max":355,"o":"m 116 -3 q 64 -2 82 -3 q 38 1 46 -1 q 27 4 31 2 q 19 19 19 10 l 19 20 q 28 35 19 30 q 51 39 33 37 q 94 41 70 41 q 124 43 113 42 q 141 44 136 43 q 148 46 146 45 q 149 48 149 47 l 149 49 q 142 91 146 58 q 134 161 138 125 q 123 285 130 217 q 113 393 117 353 q 102 520 108 441 q 92 676 96 600 q 88 782 88 753 q 102 890 88 846 l 108 910 q 109 914 109 913 q 94 916 109 915 q 56 918 79 917 q 19 919 31 918 q 3 922 7 920 q -6 927 -2 924 q -14 944 -14 935 q -6 959 -14 953 q 15 965 -1 963 q 64 970 30 968 q 159 974 98 972 q 179 975 170 974 q 257 977 227 976 q 304 978 287 978 q 329 977 321 978 q 340 975 337 977 q 346 971 344 974 q 347 970 347 971 q 355 950 355 962 q 345 930 355 938 q 317 921 337 924 q 273 918 298 918 q 257 917 262 918 q 252 916 252 917 q 251 914 251 915 q 252 911 251 913 q 269 848 264 880 q 273 766 273 817 l 273 751 q 267 558 273 682 q 254 365 260 433 q 241 176 248 286 q 238 127 240 155 q 233 77 235 100 q 228 47 230 54 l 228 43 q 233 41 229 41 q 248 40 237 40 q 279 39 259 39 q 314 38 302 39 q 331 36 326 37 q 338 32 336 35 q 345 16 345 25 q 338 1 345 8 q 333 -2 336 -1 q 322 -4 329 -3 q 300 -5 315 -5 q 263 -5 286 -5 q 192 -5 234 -5 q 116 -3 150 -5 z "},"J":{"ha":532,"x_min":-46,"x_max":495,"o":"m 58 67 q 28 109 38 94 q 17 140 17 126 q 18 148 17 144 q 35 164 21 164 l 37 164 q 75 138 53 164 q 115 98 96 113 q 179 69 151 69 q 191 71 185 69 q 247 114 224 78 q 285 199 270 149 q 321 387 319 316 q 323 481 323 458 q 313 677 323 579 q 302 840 302 785 q 304 877 302 863 q 307 902 306 891 q 308 914 308 913 q 260 916 308 916 q 142 917 212 917 q 55 917 89 917 q 2 918 22 918 q -26 921 -17 919 q -39 925 -35 922 q -44 933 -42 928 q -46 943 -46 938 q -45 951 -46 947 q -33 964 -41 960 q 235 985 -13 981 q 306 985 277 985 l 332 985 q 385 981 366 985 q 416 970 403 978 q 482 852 463 949 q 495 707 495 789 q 491 608 495 661 q 442 320 479 463 q 348 90 405 178 q 241 -7 285 -2 q 191 -13 198 -13 q 58 67 120 -13 z "},"K":{"ha":617,"x_min":41,"x_max":614,"o":"m 125 5 q 97 35 106 15 q 94 60 96 40 q 90 104 92 79 q 85 187 89 136 q 78 283 81 238 q 73 340 74 328 q 70 368 72 346 q 66 418 68 390 q 61 481 64 447 q 56 541 58 515 q 41 786 41 701 l 41 793 q 57 912 41 880 q 78 942 64 928 q 105 964 92 957 q 140 971 119 970 q 175 964 160 971 q 225 913 209 951 q 241 832 241 875 q 241 784 241 789 q 231 566 241 703 q 226 502 229 539 q 221 433 223 464 q 217 376 219 403 q 214 340 215 350 q 214 326 214 331 l 214 322 q 216 317 214 317 q 229 327 218 317 q 254 351 239 337 q 407 608 346 446 q 462 798 435 682 q 490 899 477 864 q 529 959 511 951 q 557 967 548 967 q 589 952 574 967 q 614 876 611 929 l 614 865 q 593 730 614 798 q 531 586 569 655 q 452 459 493 516 q 369 358 408 397 q 286 288 331 319 l 256 267 l 262 258 q 316 206 283 229 q 372 179 349 183 q 406 174 396 174 q 459 187 433 174 q 487 209 476 196 q 506 243 497 222 q 534 274 517 274 q 541 273 538 274 q 557 248 557 267 q 556 236 557 243 q 463 126 535 165 q 368 104 418 104 q 340 106 354 104 q 222 152 275 113 q 209 162 215 158 q 203 165 203 165 q 200 148 201 165 q 198 105 199 131 q 192 38 197 56 q 173 11 186 19 q 154 3 163 3 q 142 2 146 2 q 125 5 133 2 z "},"L":{"ha":538,"x_min":31,"x_max":576,"o":"m 254 -11 q 140 70 184 9 q 73 210 96 130 q 40 370 49 290 q 31 511 31 450 q 55 796 31 679 q 122 960 79 913 q 185 988 150 988 l 186 988 q 245 958 222 987 q 266 903 264 930 q 268 865 268 876 q 263 798 268 833 q 249 714 256 752 q 243 688 245 700 q 212 475 222 577 q 202 317 202 373 q 212 186 202 246 q 238 110 219 143 q 290 58 256 76 q 317 49 307 50 q 330 48 328 48 q 366 53 346 48 q 527 151 441 72 q 550 170 545 168 q 558 172 556 172 q 570 165 565 172 q 576 154 576 160 q 574 147 576 151 q 544 113 570 137 q 434 26 492 62 q 354 -8 390 -1 q 296 -16 317 -16 q 254 -11 274 -16 z "},"M":{"ha":1075,"x_min":48,"x_max":1025,"o":"m 98 28 q 81 99 87 47 q 68 254 75 151 q 65 309 67 280 q 62 355 64 337 q 49 609 50 521 q 48 713 48 696 q 57 889 48 842 q 142 975 78 972 q 226 893 202 975 q 237 723 237 850 q 235 629 237 680 q 233 549 234 576 q 233 513 233 522 l 233 503 l 237 514 q 249 542 242 525 q 289 629 265 583 q 330 701 312 675 q 395 764 362 747 q 431 770 412 770 l 435 770 q 475 762 456 770 q 583 610 549 724 q 587 594 585 601 q 590 587 589 588 l 591 587 q 593 591 592 587 q 597 604 595 595 q 640 766 613 687 q 694 890 667 844 q 802 966 744 966 l 806 966 q 921 884 867 962 q 1025 426 1025 730 q 1025 385 1025 406 q 1012 189 1023 283 q 989 59 1002 94 q 937 14 972 14 l 931 14 q 881 76 890 19 q 878 111 880 85 q 876 167 877 137 q 848 529 870 329 q 804 814 826 728 q 785 864 793 859 q 772 869 777 869 q 753 857 764 869 q 724 810 740 840 q 658 622 689 747 q 631 486 642 554 q 613 324 621 418 q 606 236 609 269 q 598 185 602 202 q 590 161 595 168 q 578 153 585 155 q 569 150 574 153 q 559 144 564 147 q 538 136 547 136 q 526 136 528 136 q 498 142 511 136 q 476 163 486 149 q 462 195 466 177 q 458 232 460 203 q 455 300 456 262 q 437 559 448 457 q 414 673 426 661 q 409 675 412 675 q 401 673 406 675 q 378 650 394 667 q 294 483 336 602 q 221 205 252 363 q 213 151 217 182 q 193 37 205 85 q 161 -1 178 0 q 143 -3 144 -3 q 98 28 114 -3 z "},"N":{"ha":791,"x_min":43,"x_max":735,"o":"m 613 2 q 602 9 608 5 q 593 19 596 14 q 578 50 583 31 q 573 92 573 68 q 573 126 573 117 q 575 229 573 165 q 577 362 577 305 q 574 489 577 418 q 543 847 566 784 q 526 884 532 882 q 519 885 519 885 q 485 861 507 885 q 421 768 456 829 q 359 639 386 706 q 263 356 312 522 q 195 87 214 191 q 188 55 191 70 q 181 35 184 40 q 156 11 168 12 q 142 10 144 10 q 107 31 122 10 q 85 149 92 54 q 80 217 84 171 q 71 311 76 262 q 51 527 56 450 q 44 675 45 604 q 43 725 43 701 q 55 876 43 824 q 109 962 70 941 q 145 971 125 971 q 182 962 165 971 q 225 907 212 945 q 245 794 239 869 q 246 738 246 771 q 245 663 246 705 q 236 509 242 578 q 233 471 234 488 q 231 451 231 455 q 232 450 231 450 q 238 465 233 450 q 254 510 244 481 q 318 688 285 603 q 373 817 351 772 q 494 966 434 934 q 543 977 519 977 q 618 943 583 977 q 724 654 695 861 q 735 401 735 557 l 735 383 q 722 102 735 214 q 671 0 712 16 q 646 -4 660 -4 l 642 -4 q 613 2 625 -4 z "},"O":{"ha":740,"x_min":24,"x_max":706,"o":"m 302 -16 q 167 69 233 -1 q 51 345 68 175 q 47 416 47 379 q 49 465 47 439 q 65 578 53 528 q 70 597 68 591 q 71 608 71 604 q 68 614 71 611 q 24 752 24 686 l 24 762 q 68 887 28 832 q 169 967 109 941 q 290 994 229 994 q 319 992 304 994 q 479 939 408 983 q 602 824 550 895 q 693 619 680 712 q 706 480 706 526 q 681 307 706 391 q 450 -3 606 60 q 389 -19 416 -16 q 349 -21 361 -21 q 302 -16 324 -21 m 454 92 q 572 198 528 130 q 633 341 616 266 q 650 483 650 416 q 649 507 650 495 q 627 659 646 587 q 567 791 608 731 q 455 896 524 853 q 310 941 387 939 l 308 941 q 159 891 222 941 q 114 840 134 872 q 89 784 93 808 q 84 748 84 759 q 97 690 84 720 q 102 696 98 690 q 109 715 105 704 q 186 817 138 794 q 211 826 203 825 q 220 826 218 826 q 241 822 231 826 q 286 739 286 806 q 275 662 286 707 q 252 547 266 620 q 232 432 238 473 q 226 369 227 395 q 226 338 226 344 q 229 274 226 300 q 321 95 248 144 q 386 75 354 75 l 388 75 q 454 92 420 75 z "},"P":{"ha":726,"x_min":45,"x_max":701,"o":"m 96 37 q 91 70 94 45 q 83 122 87 94 q 76 172 79 151 q 59 391 67 252 q 48 629 52 531 q 45 770 45 726 q 47 824 45 806 q 145 968 61 968 q 239 865 216 968 q 243 839 241 852 q 244 802 244 825 q 245 734 245 779 q 245 664 245 692 q 245 635 245 635 q 250 644 246 635 q 258 667 253 654 q 356 869 300 791 q 452 960 408 939 q 526 981 497 981 q 581 968 554 981 q 673 850 635 941 q 701 689 701 774 q 701 661 701 675 q 656 466 695 559 q 549 306 617 372 q 431 232 479 239 q 370 225 384 225 q 235 274 302 225 l 225 281 q 209 134 218 208 q 199 59 204 96 q 176 4 194 17 q 144 -8 159 -8 q 128 -5 136 -8 q 96 37 106 5 m 460 355 q 518 488 499 406 q 538 624 536 570 q 541 701 541 679 q 535 807 541 760 q 518 876 530 848 q 494 903 507 903 q 481 904 482 904 q 422 869 458 904 q 319 698 368 817 q 262 523 289 623 q 230 366 235 422 l 228 340 l 240 329 q 335 290 285 290 q 355 292 345 290 q 460 355 417 302 z "},"Q":{"ha":663,"x_min":18,"x_max":626,"o":"m 585 -37 q 562 -18 579 -33 q 526 16 545 -3 l 479 61 l 458 43 q 413 14 439 28 q 364 -6 387 1 q 293 -15 327 -15 q 189 13 235 -15 q 77 141 118 58 q 24 315 36 224 q 18 416 18 355 q 24 526 18 477 q 127 876 46 718 q 199 986 168 958 q 241 1014 224 1010 q 264 1017 258 1017 q 310 999 287 1017 q 324 990 315 995 q 342 981 334 985 q 414 941 387 962 q 473 884 442 921 q 610 623 574 764 q 626 486 626 557 q 622 415 626 451 q 574 213 610 304 q 551 162 564 189 q 530 123 538 135 l 524 115 l 553 81 q 626 -29 626 -1 q 623 -37 626 -34 q 609 -43 620 -43 q 585 -37 599 -43 m 383 75 q 405 84 393 79 q 424 96 416 90 q 432 105 432 102 q 424 115 432 106 q 404 135 416 123 q 376 167 381 157 q 370 185 370 178 q 372 196 370 191 q 399 222 381 217 q 406 223 403 223 q 425 218 415 223 q 455 190 437 211 q 473 171 465 178 q 482 163 481 163 q 494 178 485 163 q 513 215 503 193 q 531 256 523 236 q 565 388 559 329 q 570 475 570 446 q 561 568 570 526 q 507 718 543 643 q 430 843 471 793 q 367 904 383 899 q 345 909 351 909 q 317 890 328 909 q 288 817 302 864 q 272 770 281 795 q 197 525 219 624 q 174 337 174 427 q 185 240 174 293 q 221 143 197 188 q 276 82 245 98 q 333 66 307 66 q 383 75 356 66 z "},"R":{"ha":732,"x_min":45,"x_max":702,"o":"m 86 95 q 60 390 72 195 q 45 740 47 585 l 45 764 q 49 837 45 797 q 74 927 53 888 q 146 968 96 966 q 217 925 196 966 q 242 838 238 885 q 245 758 245 791 l 245 740 q 245 730 245 735 q 245 663 245 690 q 245 635 245 635 q 251 648 247 636 q 261 675 255 659 q 403 922 317 843 q 521 982 466 982 q 530 981 525 982 q 630 922 589 976 q 691 790 672 869 q 702 687 702 740 q 695 600 702 644 q 631 412 680 500 q 505 269 583 323 q 425 232 460 239 q 369 225 389 225 q 305 236 337 225 q 289 241 295 239 q 281 242 283 242 l 281 242 q 292 222 281 239 q 318 185 304 205 q 340 155 332 166 q 498 64 422 64 q 509 65 503 64 q 572 96 544 71 q 600 110 587 110 q 604 109 602 110 q 618 87 618 106 q 613 75 618 81 q 596 58 609 69 q 465 5 537 5 q 354 33 413 5 q 244 120 294 66 q 212 148 220 148 q 210 147 210 148 q 203 109 203 142 q 200 58 203 87 q 177 1 193 12 q 152 -10 161 -10 q 123 3 138 -10 q 86 95 98 26 m 446 337 q 515 474 493 388 q 539 617 537 560 q 541 694 541 674 q 534 813 541 760 q 516 880 529 855 q 481 904 503 904 l 478 904 q 418 865 454 903 q 262 517 329 776 q 230 366 233 411 l 229 341 l 241 329 q 334 290 283 290 l 344 290 q 446 337 401 294 z "},"S":{"ha":551,"x_min":9,"x_max":530,"o":"m 255 -3 q 169 28 214 3 q 95 87 123 54 q 75 119 75 110 q 90 135 76 135 q 116 123 96 135 q 161 92 136 111 q 279 46 222 46 q 343 61 312 46 q 388 105 378 79 q 397 152 397 132 q 394 180 397 166 q 362 243 386 216 q 309 289 347 259 q 231 348 271 319 q 91 466 139 412 q 22 583 43 520 q 9 673 9 627 q 12 722 9 697 q 62 856 22 795 q 186 962 124 945 q 281 980 248 980 q 384 955 334 980 q 507 805 466 914 q 524 743 519 772 q 530 663 528 713 q 530 623 530 640 l 530 609 q 526 586 530 591 q 515 581 522 581 q 502 587 505 581 q 499 602 500 589 q 496 630 498 614 q 469 761 494 692 q 397 869 444 829 q 342 896 363 895 q 317 897 320 897 q 241 870 280 897 q 186 794 197 836 q 175 724 175 753 q 180 673 175 699 q 227 578 193 618 q 342 468 259 543 q 430 373 401 414 q 474 277 458 331 q 484 205 484 240 q 473 135 484 170 q 401 31 452 66 q 288 -5 351 -5 q 255 -3 272 -5 z "},"T":{"ha":534,"x_min":-54,"x_max":625,"o":"m 242 34 q 228 119 235 56 q 216 265 220 182 q 212 329 214 294 q 208 391 210 365 q 190 721 190 602 l 190 730 q 210 898 191 850 l 210 899 q 210 900 210 899 q 201 902 208 901 q 183 903 195 903 q 150 904 171 903 q 99 905 130 905 q 16 908 51 906 q -26 911 -20 909 q -37 915 -31 912 q -47 921 -43 918 q -53 928 -52 925 q -54 936 -54 932 l -54 940 q -41 959 -54 954 q 12 967 -27 965 q 115 970 33 968 q 303 973 198 972 q 430 975 388 975 q 494 976 471 976 q 532 975 515 976 q 582 972 565 975 q 606 966 599 970 q 618 955 613 962 q 625 936 625 945 q 622 924 625 930 q 596 901 615 907 q 530 898 578 898 q 432 901 483 898 q 399 902 412 902 q 384 902 385 903 q 383 899 383 901 q 384 893 383 897 q 387 876 385 886 q 397 806 394 848 q 400 730 400 764 q 399 703 400 716 q 390 567 397 658 q 374 392 382 477 q 368 328 371 364 q 362 262 365 291 q 350 136 357 199 q 336 48 342 73 q 305 -1 322 2 q 284 -4 288 -4 q 242 34 259 -4 z "},"U":{"ha":727,"x_min":32,"x_max":669,"o":"m 62 186 q 34 359 36 275 q 32 470 32 443 q 45 693 32 583 q 100 909 63 830 q 143 959 122 950 q 176 968 164 968 q 207 958 192 968 q 241 894 232 941 q 244 853 244 878 q 230 691 244 795 q 202 357 202 498 q 210 222 202 282 q 239 105 220 132 q 276 78 258 78 q 291 81 283 78 q 345 138 318 94 q 391 240 371 181 q 460 582 433 366 q 469 646 465 610 q 477 707 474 682 q 485 770 481 734 q 489 836 488 805 l 489 842 q 494 905 490 873 q 516 960 499 937 q 571 986 533 983 l 576 986 q 651 937 626 986 q 662 906 658 923 q 667 854 665 888 q 669 756 669 820 l 669 732 q 668 591 669 686 q 660 318 667 463 q 641 87 654 174 q 614 22 629 23 q 599 20 600 20 q 559 77 573 20 q 552 122 557 87 q 543 199 548 157 q 535 277 538 242 q 524 386 531 324 q 512 494 517 448 q 505 545 507 541 q 500 524 505 545 q 492 471 497 503 q 469 330 483 404 q 443 214 454 256 q 342 25 399 64 q 246 -14 286 -14 q 178 7 212 -14 q 62 186 104 52 z "},"V":{"ha":628,"x_min":27,"x_max":593,"o":"m 172 172 q 71 474 109 303 q 28 789 33 646 q 27 818 27 804 q 33 895 27 867 q 60 949 40 930 q 107 969 81 969 l 111 969 q 161 945 139 968 q 196 873 183 924 q 222 706 209 821 l 223 695 q 254 448 236 572 q 304 203 272 323 q 347 96 330 100 q 366 92 364 92 q 438 190 397 92 q 476 307 459 241 q 521 579 498 402 q 551 883 544 757 q 552 918 551 905 q 555 935 553 930 q 559 943 557 941 q 569 949 565 949 q 574 949 573 949 q 587 945 581 949 q 591 939 589 943 q 592 925 592 935 q 592 896 593 916 q 588 777 591 836 q 585 712 586 745 q 500 195 572 435 q 416 30 458 57 q 347 2 374 2 q 285 24 317 2 q 172 172 224 67 z "},"W":{"ha":944,"x_min":33,"x_max":902,"o":"m 117 49 q 59 189 79 103 q 34 416 40 275 q 33 492 33 454 q 50 728 33 617 q 116 928 74 872 q 129 939 121 933 q 144 948 136 945 q 178 956 161 956 q 207 950 193 956 q 253 901 237 937 q 257 886 256 893 q 259 867 259 878 q 260 835 260 855 q 252 742 260 795 q 220 567 244 689 q 187 380 195 441 q 179 263 179 320 q 192 139 180 193 q 221 69 205 85 q 248 53 237 53 q 276 66 261 53 q 334 184 303 93 q 359 279 343 214 q 386 395 375 343 q 392 433 391 419 q 393 460 393 447 l 393 473 q 393 516 393 496 q 399 623 393 581 q 432 709 408 678 q 496 746 461 746 q 508 745 502 746 q 568 684 549 736 q 573 613 573 665 q 569 492 574 561 q 567 429 567 460 q 577 285 567 357 q 614 161 589 214 q 684 95 646 95 l 687 95 q 767 162 726 97 q 823 297 800 215 q 842 396 836 347 q 848 511 848 445 l 848 528 q 785 846 848 724 q 754 901 769 881 q 721 932 740 920 q 701 960 701 947 q 713 979 701 970 q 724 983 718 983 q 771 954 741 983 q 849 837 821 906 q 902 526 902 694 q 887 342 902 438 q 822 134 865 214 q 723 27 768 37 q 665 18 678 18 q 537 83 602 18 q 477 173 504 119 q 450 235 465 198 q 429 294 435 271 q 424 307 426 302 q 422 312 422 312 q 415 291 420 311 q 402 243 410 272 q 342 77 376 142 q 282 10 317 30 q 216 -9 247 -9 q 193 -7 205 -9 q 117 49 150 1 z "},"X":{"ha":650,"x_min":9,"x_max":691,"o":"m 52 -4 q 42 18 42 3 q 44 35 42 26 q 201 333 58 81 q 214 357 209 347 q 220 371 220 368 q 212 388 220 373 q 193 424 204 404 q 95 615 144 511 q 26 774 45 720 q 12 839 14 810 q 9 874 9 867 q 25 946 9 915 q 93 981 43 981 l 98 981 q 195 901 156 979 q 222 836 210 873 q 254 721 234 798 q 278 631 266 674 q 300 558 291 587 q 312 529 310 529 q 325 548 313 530 q 351 593 336 566 q 477 797 408 688 q 574 941 546 905 q 616 965 593 965 q 635 957 626 965 q 646 941 644 949 q 646 935 646 937 q 643 915 646 924 q 626 880 639 901 q 586 820 612 858 q 497 689 539 751 q 435 593 456 626 q 372 489 400 537 q 345 435 345 440 q 379 343 345 412 q 455 208 413 275 q 525 114 496 141 q 571 81 552 87 q 597 74 590 74 q 642 98 620 74 q 653 108 648 105 q 665 111 658 111 q 683 103 675 111 q 691 85 691 94 q 681 66 691 78 q 656 42 671 54 q 629 23 642 30 q 576 12 602 12 q 557 13 567 12 q 490 39 522 20 q 387 134 450 64 q 282 271 325 204 q 270 289 275 282 q 264 296 264 296 q 252 279 262 296 q 227 237 241 262 q 155 113 182 159 q 113 42 128 66 q 89 9 98 18 q 74 -4 81 -1 q 62 -9 66 -9 q 52 -4 57 -9 z "},"Y":{"ha":714,"x_min":26,"x_max":669,"o":"m 385 -2 q 359 10 372 3 q 342 24 347 18 q 341 29 341 25 q 340 37 340 33 q 360 57 340 57 q 372 56 366 57 q 394 52 384 52 q 457 105 435 52 q 495 278 481 164 q 497 326 496 292 q 498 397 498 359 q 498 462 498 434 q 496 493 497 490 q 495 494 496 494 q 482 469 492 494 q 325 245 414 292 q 271 234 298 234 q 213 248 242 234 q 98 375 145 282 q 33 600 50 468 q 28 655 30 623 q 26 718 26 688 l 26 739 q 33 824 27 782 q 52 901 39 866 q 86 958 64 937 q 139 979 107 979 q 188 961 167 979 q 216 912 208 943 q 218 876 218 902 q 218 851 218 865 q 213 747 217 805 q 208 631 208 692 q 209 589 208 610 q 218 459 210 506 q 251 351 231 384 q 291 323 269 323 q 296 323 294 323 q 346 351 321 327 q 475 647 433 433 q 481 691 481 677 q 481 709 481 705 q 477 777 481 734 q 472 853 472 820 q 488 942 472 915 q 520 976 505 976 q 536 976 536 976 q 589 949 566 976 q 628 871 613 920 q 656 736 644 823 q 669 562 669 650 q 631 264 669 414 q 522 42 594 109 q 426 -7 475 -6 l 417 -7 q 385 -2 398 -7 z "},"Z":{"ha":632,"x_min":-10,"x_max":666,"o":"m -3 231 q 41 349 8 283 q 170 549 90 448 q 385 781 250 650 q 437 833 416 812 q 457 854 457 853 q 445 852 456 854 q 416 847 433 850 q 311 838 368 838 q 278 838 295 838 q 142 867 201 842 q 102 896 121 878 q 79 929 84 914 q 77 945 77 939 q 90 970 77 964 q 102 972 95 972 q 135 958 117 972 q 237 913 174 926 q 364 900 300 900 l 370 900 q 484 911 437 900 q 566 943 542 926 q 621 966 598 966 q 643 960 633 966 q 661 940 656 951 q 666 911 666 929 l 666 905 q 663 879 665 889 q 651 851 660 868 q 622 802 641 829 q 566 729 604 775 q 462 605 529 684 q 281 393 337 459 q 205 298 225 326 q 163 236 188 276 q 127 168 138 197 q 117 125 117 139 q 126 96 117 107 q 168 81 137 81 q 210 86 185 81 q 300 117 246 94 q 452 190 354 140 q 509 219 489 209 q 538 232 529 229 q 553 235 547 235 l 560 235 q 570 233 566 235 q 578 227 574 232 q 583 212 583 220 q 532 168 583 189 q 505 155 520 163 q 477 141 489 148 q 214 13 309 45 q 139 0 174 0 q 81 11 107 0 q 8 81 26 35 q -10 169 -10 127 q -3 231 -10 198 z "},"[":{"ha":451,"x_min":34,"x_max":417,"o":"m 136 -140 q 103 -121 114 -138 q 84 -59 92 -104 q 63 146 73 2 q 58 207 60 177 q 54 253 56 237 q 46 374 52 288 q 37 553 41 460 q 34 685 35 614 q 34 799 34 755 l 34 883 q 37 989 35 964 q 96 1103 48 1080 q 112 1110 106 1109 q 127 1111 119 1111 l 136 1111 q 199 1109 163 1109 q 302 1112 243 1109 q 367 1113 347 1113 q 395 1109 387 1112 q 417 1095 417 1103 q 415 1088 417 1092 q 384 1075 411 1080 q 298 1063 357 1069 q 241 1057 264 1059 q 217 1053 218 1054 l 217 1052 q 218 1046 217 1050 q 221 1032 219 1040 q 233 804 233 979 l 233 784 q 218 355 231 592 q 213 286 216 319 q 210 238 211 253 q 206 199 208 224 q 203 151 204 174 q 193 30 199 92 q 182 -57 186 -31 q 179 -73 180 -67 q 178 -81 178 -79 l 178 -83 l 189 -83 q 213 -81 199 -82 q 271 -77 245 -77 q 309 -81 296 -77 q 318 -86 315 -83 q 321 -94 321 -89 l 321 -96 q 319 -103 321 -100 q 308 -110 317 -106 q 281 -117 301 -113 q 236 -126 260 -122 q 191 -134 212 -130 q 165 -139 171 -138 q 153 -140 159 -140 q 144 -140 147 -140 l 136 -140 z "},"\\":{"ha":586,"x_min":34,"x_max":552,"o":"m 542 -74 q 523 -84 533 -84 q 500 -72 512 -84 q 490 -61 495 -68 q 478 -41 486 -55 q 459 0 471 -27 q 428 72 448 26 q 379 187 408 117 q 244 505 289 400 q 145 732 199 610 q 84 870 106 818 q 51 950 62 922 q 37 993 40 978 q 34 1015 34 1005 l 34 1019 q 36 1036 34 1030 q 44 1046 37 1041 q 65 1057 55 1057 q 84 1048 75 1057 q 174 872 102 1027 q 334 518 246 718 q 485 161 422 318 q 535 28 519 76 q 552 -41 551 -19 l 552 -46 q 542 -74 552 -65 z "},"]":{"ha":452,"x_min":34,"x_max":418,"o":"m 315 1112 q 348 1094 337 1111 q 367 1031 359 1077 q 389 827 378 971 q 393 766 391 796 q 397 720 395 735 q 405 598 400 684 q 414 420 410 513 q 417 288 416 358 q 418 174 418 218 q 417 90 418 131 q 414 -16 416 9 q 355 -131 404 -108 q 339 -137 346 -136 q 325 -138 333 -138 l 316 -138 q 252 -137 289 -137 q 149 -139 208 -137 q 101 -140 120 -140 l 85 -140 q 56 -137 64 -140 q 34 -121 34 -131 q 36 -115 34 -119 q 67 -101 40 -107 q 153 -90 94 -96 q 210 -84 187 -86 q 234 -81 233 -81 l 234 -79 q 233 -73 234 -77 q 231 -59 233 -68 q 219 153 219 -9 l 219 189 q 233 618 220 381 q 238 687 236 654 q 242 734 241 720 q 245 774 243 749 q 248 822 247 799 q 259 943 252 882 q 270 1030 265 1004 q 272 1048 271 1040 q 273 1056 273 1055 q 270 1057 273 1057 q 262 1056 267 1057 q 239 1053 252 1055 q 189 1050 212 1050 l 180 1050 q 143 1054 155 1050 q 134 1059 136 1056 q 130 1067 131 1062 l 130 1069 q 132 1076 130 1074 q 143 1082 134 1079 q 170 1090 150 1085 q 216 1099 191 1095 q 260 1107 240 1103 q 286 1112 280 1110 q 300 1113 292 1113 q 315 1112 309 1113 z "},"_":{"ha":547,"x_min":34,"x_max":513,"o":"m 263 1 q 215 4 250 2 q 142 8 180 6 q 85 10 105 9 q 58 11 67 10 q 46 13 50 12 q 40 18 43 15 q 34 32 34 25 q 41 46 34 39 q 47 52 43 50 q 57 55 50 54 q 79 55 64 55 q 121 57 92 55 q 177 60 149 58 q 363 66 244 66 q 429 66 404 66 q 466 65 453 66 q 485 64 479 65 q 494 60 491 62 q 513 34 513 50 l 513 33 q 493 6 512 16 q 477 3 488 4 q 443 1 467 1 q 376 0 420 1 q 300 0 332 0 q 263 1 269 0 z "},"a":{"ha":670,"x_min":7,"x_max":636,"o":"m 49 104 q 7 251 7 163 q 49 402 7 339 q 161 486 90 466 q 208 490 181 490 q 259 485 236 490 q 313 465 281 480 q 366 437 345 450 q 404 403 383 423 q 435 366 424 382 q 444 354 441 357 q 448 351 446 351 q 449 357 448 352 q 447 393 449 361 q 440 465 444 424 q 433 542 436 507 q 431 555 432 548 q 424 620 429 583 q 407 689 418 656 q 382 730 396 721 q 358 739 368 739 q 324 726 344 739 q 219 606 276 692 q 189 564 200 572 q 168 555 178 555 q 157 557 163 555 q 137 585 137 564 q 151 633 137 604 q 227 749 184 698 q 309 819 270 800 q 399 842 358 842 q 452 831 428 842 q 552 735 513 804 q 612 584 592 667 q 636 387 636 489 q 635 353 636 370 q 597 123 631 233 q 562 39 579 63 q 518 16 544 16 q 470 64 482 18 q 467 75 469 71 q 465 80 466 79 q 457 76 465 80 q 439 64 450 71 q 325 9 376 20 q 245 -2 274 -2 q 163 11 203 -2 q 49 104 96 34 m 349 84 q 441 127 408 96 q 458 149 457 142 q 460 158 460 155 q 452 188 460 169 q 393 297 428 248 q 324 362 357 345 q 279 376 296 376 q 261 376 262 376 q 210 366 231 376 q 168 309 177 347 q 159 241 159 270 q 163 195 159 218 q 205 113 172 142 q 276 81 234 89 q 304 79 291 79 l 311 79 q 349 84 326 79 z "},"b":{"ha":730,"x_min":37,"x_max":702,"o":"m 124 10 q 94 77 103 28 q 86 132 91 93 q 76 216 81 171 q 69 294 71 261 q 61 389 66 322 q 42 594 55 456 q 37 710 37 656 l 37 722 q 44 811 37 782 q 91 888 61 872 q 140 904 120 904 q 178 895 159 904 q 237 819 218 877 q 249 698 249 781 q 244 574 249 645 q 239 490 241 527 q 235 444 236 454 q 235 436 235 439 q 235 433 235 433 q 237 434 236 433 q 252 473 239 439 q 303 596 270 527 q 382 720 336 665 q 503 790 445 791 q 607 741 562 790 q 677 614 652 691 q 697 516 692 567 q 702 433 702 465 q 699 380 702 405 q 559 92 677 203 q 436 23 490 29 q 366 17 382 17 q 227 55 292 17 q 208 63 212 63 q 206 62 206 63 q 203 51 205 59 l 201 44 q 176 7 192 14 q 151 0 159 0 q 124 10 136 0 m 454 141 q 488 181 475 161 q 513 229 502 201 q 545 367 543 307 q 547 446 547 427 q 535 592 547 524 q 511 676 528 642 q 467 712 495 711 q 395 657 438 712 q 227 191 290 528 l 218 140 l 228 132 q 334 92 276 92 l 343 92 q 454 141 406 95 z "},"c":{"ha":602,"x_min":19,"x_max":595,"o":"m 99 65 q 26 239 33 159 q 19 351 19 319 q 47 543 19 448 q 164 750 84 668 q 256 813 211 797 q 334 829 301 829 q 381 823 357 829 q 481 752 437 808 q 543 611 524 690 q 566 463 562 531 q 568 412 568 435 q 567 378 568 394 q 553 340 564 348 q 534 333 541 333 q 519 338 526 333 q 501 378 504 348 l 498 430 q 490 524 495 488 q 477 591 486 561 q 447 661 466 632 q 410 697 429 690 q 394 699 402 699 q 347 680 372 699 q 284 602 313 654 q 223 423 231 504 q 215 310 215 342 q 242 146 215 221 q 288 71 258 102 q 344 36 317 41 q 383 31 372 31 q 467 50 420 31 q 532 101 496 63 q 566 130 558 127 q 576 133 573 133 q 589 125 583 133 q 595 111 595 119 q 593 100 595 106 q 552 52 585 85 q 486 -1 522 21 q 379 -45 421 -41 q 323 -49 336 -49 q 212 -26 266 -49 q 99 65 145 3 z "},"d":{"ha":742,"x_min":18,"x_max":699,"o":"m 117 60 q 36 209 54 127 q 18 357 18 291 q 22 427 18 392 q 65 611 33 531 q 147 735 93 682 q 280 793 201 787 l 288 793 q 471 683 393 793 l 487 659 l 489 758 q 506 918 490 880 q 549 972 523 958 q 595 985 574 985 q 621 981 608 985 q 677 929 655 971 q 692 882 687 909 q 699 810 697 854 q 699 760 699 789 q 697 646 699 713 q 687 435 694 541 q 673 277 681 330 q 668 238 671 258 q 665 206 666 218 q 655 118 662 165 q 645 53 649 70 q 591 0 631 0 l 591 0 q 535 58 550 0 q 527 112 532 76 q 520 178 522 149 q 514 242 517 212 q 509 277 511 271 q 503 269 507 277 q 492 242 498 259 q 390 60 446 110 q 291 1 329 1 q 252 1 253 1 q 117 60 178 1 m 392 157 q 482 402 453 244 q 486 422 484 413 q 493 466 491 454 q 494 485 494 478 q 494 492 494 489 q 487 513 492 501 l 484 522 q 367 665 444 637 q 336 671 351 671 q 294 659 314 671 q 233 587 259 638 q 190 456 203 530 q 176 321 176 382 q 178 273 176 296 q 218 132 184 187 q 263 91 245 93 q 286 89 282 89 q 340 106 314 89 q 392 157 371 126 z "},"e":{"ha":583,"x_min":20,"x_max":595,"o":"m 260 -44 q 95 67 157 -20 q 29 230 38 151 q 20 352 20 310 q 37 507 20 429 q 128 714 63 627 q 294 824 193 802 q 330 827 313 827 q 425 801 382 827 q 515 702 482 766 q 549 572 549 639 q 469 337 549 444 q 267 186 389 225 q 249 179 257 182 q 233 174 235 175 q 232 171 232 173 q 233 161 232 168 q 241 136 235 151 q 255 106 248 121 q 321 41 286 51 q 377 32 356 32 q 437 42 407 32 q 531 100 490 60 q 564 129 557 125 q 575 132 572 132 q 588 126 582 132 q 595 112 595 120 q 591 100 595 106 q 551 52 583 84 q 432 -28 494 -6 q 320 -50 370 -50 q 260 -44 290 -50 m 250 244 q 382 342 331 277 q 440 460 424 398 q 457 567 457 523 q 452 621 457 595 q 414 697 435 696 q 391 698 393 698 q 309 641 351 698 q 213 327 221 521 q 212 290 212 307 q 221 235 212 236 q 232 238 224 235 q 250 244 240 240 z "},"f":{"ha":488,"x_min":32,"x_max":501,"o":"m 92 -16 q 58 127 76 37 q 36 291 40 220 q 32 396 32 361 q 41 540 32 469 q 98 730 55 645 q 218 843 141 815 q 258 853 241 852 q 281 854 275 854 q 319 850 302 854 q 417 793 368 834 q 489 707 466 751 q 501 660 501 680 q 500 650 501 655 q 478 628 496 628 q 432 662 460 628 q 408 689 422 674 q 380 717 394 704 q 329 743 351 743 l 327 743 q 289 720 305 742 q 236 577 257 673 q 205 387 215 481 q 196 241 196 292 l 196 234 l 210 234 q 239 235 222 234 q 329 237 289 237 q 384 234 369 237 q 417 207 417 227 q 393 180 417 189 q 334 173 382 176 q 227 168 286 169 l 195 167 l 193 140 l 193 131 q 194 104 193 120 q 198 52 195 79 q 201 -4 201 17 q 201 -20 201 -13 q 187 -55 199 -41 q 152 -77 170 -77 l 149 -77 q 114 -57 130 -75 q 92 -16 99 -39 z "},"g":{"ha":728,"x_min":22,"x_max":688,"o":"m 300 -201 q 256 -182 271 -194 q 241 -159 241 -171 q 241 -155 241 -157 q 254 -137 245 -139 q 269 -134 262 -134 q 302 -139 281 -134 q 328 -141 315 -141 q 385 -123 361 -141 q 437 -56 418 -98 q 465 27 456 -14 q 486 206 483 98 q 487 253 486 231 q 489 284 488 275 q 490 295 490 290 q 486 304 490 304 q 471 288 481 304 q 385 176 420 210 q 304 125 344 136 q 241 115 265 115 q 180 125 210 115 q 62 248 102 159 q 22 448 22 337 q 64 656 22 558 q 194 804 106 753 q 257 826 228 822 q 300 830 286 830 q 347 825 325 830 q 426 783 387 814 q 492 715 466 753 l 505 694 l 511 720 q 545 793 522 772 q 586 810 564 810 q 599 808 593 810 q 646 772 627 803 q 677 662 666 736 q 688 488 688 587 q 660 239 688 370 q 583 3 631 109 q 518 -106 558 -54 q 434 -183 479 -159 q 347 -207 389 -207 q 300 -201 325 -207 m 345 214 q 407 270 373 228 q 469 370 441 313 l 490 412 l 493 490 q 494 541 494 523 q 494 567 494 559 q 494 587 494 581 q 451 666 487 631 q 366 706 408 706 q 325 696 345 706 q 256 622 281 674 q 223 512 231 570 q 214 405 214 454 q 215 377 214 391 q 231 274 218 315 q 264 218 243 232 q 302 203 284 203 q 345 214 321 203 z "},"h":{"ha":718,"x_min":41,"x_max":682,"o":"m 535 2 q 528 8 532 4 q 522 18 525 13 q 519 27 520 20 q 517 51 518 34 q 517 100 517 67 q 517 186 517 132 q 518 252 518 221 q 515 374 518 327 q 500 528 512 441 q 476 646 490 599 q 450 702 463 693 q 444 703 448 703 q 412 690 431 703 q 388 669 398 681 q 363 635 378 658 q 226 119 257 470 q 218 56 222 75 q 192 14 212 24 q 157 3 173 3 q 141 5 149 3 q 102 33 116 10 q 90 83 97 44 q 76 171 82 121 q 66 264 69 220 q 60 351 64 300 q 58 386 59 370 q 41 760 41 621 q 51 916 41 865 q 87 983 63 964 q 135 1002 111 1002 q 155 1000 144 1002 q 187 978 171 994 q 211 942 203 962 q 223 898 219 921 q 228 829 227 875 q 229 694 229 783 q 228 572 229 623 q 227 517 227 522 q 225 509 225 511 q 226 508 225 508 q 231 515 227 508 q 238 534 234 522 q 300 677 262 607 q 372 783 338 748 q 473 829 418 829 q 490 828 481 829 q 606 751 554 819 q 632 705 618 734 q 654 651 646 676 q 682 458 682 568 q 671 311 682 390 q 657 219 664 253 q 636 136 651 185 q 555 -3 599 -3 q 544 -2 550 -3 q 535 2 538 -1 z "},"i":{"ha":288,"x_min":38,"x_max":248,"o":"m 104 915 q 38 1010 40 940 q 68 1081 39 1055 q 137 1107 96 1107 l 143 1107 q 212 1074 189 1103 q 236 1008 236 1044 l 236 1002 q 199 931 231 954 q 137 909 166 909 q 104 915 121 909 m 119 7 q 85 85 92 22 q 75 177 81 122 q 65 267 68 233 q 60 318 63 284 q 54 387 57 352 q 39 593 39 530 q 40 617 39 607 q 53 699 43 667 q 99 767 72 755 q 143 780 127 780 q 186 767 165 780 q 242 681 224 745 q 248 596 248 654 l 248 574 q 237 401 247 498 q 220 232 227 298 q 209 127 213 166 q 201 70 204 89 q 194 41 197 50 q 186 25 191 33 q 162 4 176 7 q 142 0 149 0 q 119 7 130 0 z "},"j":{"ha":293,"x_min":-119,"x_max":255,"o":"m -58 -102 q -114 -71 -109 -86 q -119 -51 -119 -56 q -105 -28 -119 -37 q -87 -24 -97 -24 q -56 -33 -73 -24 q -31 -46 -38 -45 q -20 -47 -24 -47 q -4 -43 -12 -47 q 55 39 38 -22 q 75 158 73 101 q 77 252 77 216 q 76 296 77 275 q 75 324 75 312 q 66 587 75 475 q 63 636 64 613 q 63 667 63 660 q 68 730 63 699 q 96 787 75 768 q 129 801 113 801 q 177 772 153 801 q 236 617 217 723 q 252 484 248 541 q 255 393 255 427 q 253 333 255 361 q 227 177 248 264 q 164 15 205 90 q 56 -95 122 -60 q -7 -109 26 -109 q -58 -102 -31 -109 m 96 968 q 68 979 79 972 q 45 999 56 986 q 28 1026 33 1014 q 24 1053 24 1039 q 25 1065 24 1059 q 55 1129 28 1107 q 116 1151 82 1151 l 118 1151 q 182 1121 153 1150 q 208 1060 208 1093 q 199 1019 208 1040 q 160 978 184 989 q 115 966 136 966 q 96 968 106 966 z "},"k":{"ha":586,"x_min":42,"x_max":575,"o":"m 97 -7 q 93 9 95 -3 q 86 52 90 21 q 77 141 83 83 q 66 267 73 177 q 50 530 60 356 q 42 734 42 655 q 47 833 42 800 q 118 930 64 913 q 140 933 130 933 q 184 917 164 933 q 227 845 214 894 q 234 737 234 815 q 227 532 234 659 q 221 432 223 469 q 219 385 219 395 l 219 382 q 230 391 221 382 q 253 414 239 399 q 278 443 266 429 q 296 467 290 457 q 335 537 313 493 q 368 608 357 581 q 377 637 371 618 q 388 674 382 656 q 431 770 407 741 q 490 799 454 799 q 532 784 516 799 q 556 746 549 769 q 565 708 564 723 q 565 688 565 693 q 562 653 565 669 q 441 458 537 561 q 368 390 413 428 q 286 328 323 353 l 254 307 l 281 279 q 439 197 364 197 l 448 197 q 530 254 505 204 q 538 267 534 261 q 546 275 543 273 q 557 277 552 277 q 570 272 564 277 q 575 258 575 266 q 573 246 575 252 q 559 225 570 239 q 537 197 549 212 q 515 174 524 183 q 387 121 460 123 q 372 120 380 120 q 221 183 294 120 q 211 191 214 189 q 207 193 208 193 q 205 193 206 193 q 204 189 205 192 q 198 149 201 177 q 193 93 195 121 q 193 85 193 90 q 190 53 192 71 q 185 17 188 34 q 180 -5 183 1 q 152 -33 165 -33 q 138 -34 138 -34 q 97 -7 113 -34 z "},"l":{"ha":376,"x_min":41,"x_max":429,"o":"m 160 21 q 85 188 111 85 q 50 399 59 290 q 41 588 41 508 l 41 665 q 43 711 42 692 q 48 750 45 729 q 103 889 65 846 q 175 931 141 931 q 192 929 184 931 q 253 841 235 918 q 257 786 257 823 q 242 574 257 714 q 229 411 231 477 q 227 328 227 346 q 241 156 227 235 q 261 89 249 118 q 287 57 274 60 q 304 54 300 54 q 361 83 326 54 q 378 103 373 94 q 403 121 387 121 l 404 121 q 421 114 414 121 q 429 96 429 106 q 405 53 429 79 q 331 -12 368 11 q 259 -35 294 -35 q 244 -34 252 -35 q 160 21 201 -28 z "},"m":{"ha":862,"x_min":41,"x_max":825,"o":"m 688 29 q 680 138 681 51 q 676 221 678 180 q 671 285 673 262 q 658 443 662 383 q 643 606 652 528 q 623 710 633 684 l 620 720 l 610 711 q 547 563 578 676 q 501 319 515 450 q 487 231 496 266 q 464 202 479 206 q 441 198 448 198 q 409 208 425 198 q 386 240 394 218 q 371 311 377 262 q 365 357 369 329 q 356 412 360 385 q 348 469 352 438 q 341 522 344 500 l 340 539 q 332 590 337 570 q 317 610 328 610 l 316 610 q 281 572 304 608 q 218 414 244 512 q 206 356 211 383 q 198 287 201 329 q 190 174 194 245 q 182 82 186 114 q 172 36 178 50 q 154 16 165 22 q 132 9 143 9 q 123 10 127 9 q 95 25 106 13 q 84 48 88 31 q 76 104 79 64 q 66 220 72 144 q 61 283 64 241 q 54 368 58 325 q 41 620 41 525 q 43 690 41 661 q 93 808 52 787 q 132 821 113 821 q 165 809 149 821 q 210 725 198 786 q 216 622 216 699 q 216 570 216 591 q 218 549 217 549 q 224 563 219 551 q 236 590 229 574 q 303 686 272 673 q 350 699 334 699 q 404 678 377 699 q 475 571 446 645 l 486 543 l 505 602 q 546 704 524 656 q 587 772 568 751 q 651 804 617 804 q 709 783 679 804 q 753 731 732 766 q 790 653 775 696 q 818 510 811 586 q 825 388 825 434 q 821 313 825 348 q 818 280 820 300 q 813 240 815 260 q 791 97 804 159 q 768 20 779 35 q 730 1 753 1 l 724 1 q 688 29 697 3 z "},"n":{"ha":773,"x_min":37,"x_max":738,"o":"m 128 5 q 100 45 112 14 q 83 118 87 76 q 75 212 79 176 q 70 253 71 249 q 60 329 67 265 q 47 464 54 393 q 39 570 41 535 q 37 629 37 601 q 50 753 37 707 q 115 829 68 813 q 144 833 130 833 q 192 819 170 833 q 241 741 227 795 q 251 662 250 705 q 251 614 251 620 q 244 458 251 541 q 243 440 243 447 q 243 433 243 433 q 251 451 245 435 q 267 489 258 467 q 322 609 289 544 q 380 713 355 673 q 540 833 457 833 q 551 833 546 833 q 652 773 608 828 q 720 623 696 718 q 738 452 738 543 q 736 391 738 422 q 699 161 728 266 q 677 96 688 121 q 657 54 667 72 q 650 41 654 47 q 625 15 637 16 q 611 14 612 14 q 577 35 591 14 q 573 44 574 39 q 571 59 572 49 q 570 87 570 68 q 570 138 570 106 q 566 285 570 212 q 561 437 561 361 l 561 462 q 535 730 561 697 q 521 738 530 738 q 465 702 502 738 q 275 334 365 608 q 234 204 252 267 q 211 115 215 140 q 173 7 195 22 q 156 0 163 1 q 148 0 149 0 q 128 5 137 0 z "},"o":{"ha":611,"x_min":16,"x_max":582,"o":"m 273 1 q 117 93 182 13 q 16 382 16 220 l 16 400 q 24 467 18 439 q 45 524 31 495 q 104 591 68 575 q 118 598 113 595 q 126 606 123 601 q 134 623 129 612 q 212 735 161 686 q 257 775 237 761 q 301 797 277 789 q 338 805 320 804 q 364 806 356 806 q 394 803 381 806 q 514 714 465 786 q 580 536 564 642 q 582 486 582 515 q 581 448 582 469 q 573 353 579 393 q 551 260 564 298 q 515 175 538 222 q 480 116 497 140 q 438 67 463 92 q 296 0 372 0 q 273 1 284 0 m 449 161 q 496 260 477 201 q 520 380 515 319 q 522 425 522 404 q 522 450 522 438 q 511 524 519 481 q 439 696 489 646 q 358 736 399 736 q 275 695 317 736 q 256 674 266 686 q 239 651 246 662 q 222 623 231 639 q 207 592 213 606 q 200 576 200 578 q 202 570 200 574 q 208 560 205 565 q 219 541 215 550 q 225 514 223 531 q 228 464 227 496 q 228 376 228 431 q 229 271 228 307 q 233 215 230 235 q 242 178 235 196 q 290 99 263 113 q 336 85 317 85 q 374 94 355 85 q 449 161 414 113 z "},"p":{"ha":718,"x_min":43,"x_max":691,"o":"m 110 -216 q 70 109 95 -174 q 63 196 66 153 q 56 310 60 239 q 46 509 52 380 q 43 610 43 566 q 51 724 43 683 q 103 811 64 791 q 143 821 121 821 q 184 812 166 821 q 227 760 214 793 q 242 694 239 728 q 244 633 244 661 l 244 602 q 244 537 244 563 q 245 510 245 511 q 250 521 245 511 q 260 547 254 532 q 310 650 281 598 q 369 739 340 703 q 495 810 429 810 q 512 809 503 810 q 642 694 592 797 q 684 557 676 622 q 691 457 691 492 q 682 357 691 405 q 566 129 652 220 q 446 50 503 63 q 359 37 389 37 q 250 59 304 37 q 229 66 237 64 l 221 69 q 219 51 220 68 q 215 6 217 33 q 201 -122 210 -56 q 189 -206 193 -188 q 164 -238 179 -237 q 146 -239 149 -239 q 110 -216 123 -239 m 530 360 q 534 422 534 390 q 534 471 534 455 q 534 534 534 503 q 528 603 532 581 q 503 690 520 652 q 471 729 486 728 q 454 731 456 731 q 385 680 426 731 q 244 342 296 566 q 234 271 238 315 q 229 203 230 226 q 229 175 229 181 q 231 142 229 148 q 269 123 241 132 q 333 113 303 113 q 393 125 366 113 q 477 203 445 149 q 530 360 519 273 z "},"q":{"ha":729,"x_min":22,"x_max":680,"o":"m 559 -242 q 534 -184 544 -226 q 519 -99 524 -142 q 511 -33 513 -55 q 508 6 510 -14 q 505 38 506 26 q 498 92 503 56 q 489 161 494 129 q 484 200 485 194 q 479 193 483 200 q 467 170 473 184 q 419 92 444 123 q 330 26 372 37 q 265 16 288 16 q 192 31 228 16 q 93 116 134 55 q 22 403 24 225 q 66 631 22 527 q 116 720 85 678 q 191 787 148 761 q 288 813 234 813 q 375 792 333 813 q 449 733 417 771 q 463 718 457 724 q 469 711 468 711 q 471 715 469 711 q 475 724 473 718 q 519 782 492 768 q 568 796 546 796 q 594 792 581 796 q 652 741 630 781 q 680 554 680 686 q 679 513 680 534 q 676 426 677 477 q 669 187 674 319 q 653 -60 664 55 q 623 -227 642 -174 q 602 -249 614 -246 q 585 -252 589 -252 q 559 -242 572 -252 m 344 116 q 457 288 411 152 q 471 338 469 321 q 473 367 473 355 q 470 412 473 386 q 466 471 468 435 q 462 536 463 506 q 453 616 458 609 q 418 654 444 633 q 335 690 374 690 l 330 690 q 251 636 288 688 q 204 513 222 593 q 185 387 186 433 q 184 335 184 340 q 205 191 184 253 q 282 107 229 124 q 298 106 290 106 q 313 106 305 106 q 344 116 330 109 z "},"r":{"ha":638,"x_min":38,"x_max":627,"o":"m 102 21 q 94 50 97 29 q 84 123 90 71 q 77 187 81 153 q 51 429 62 304 q 38 657 39 553 q 47 742 38 709 q 78 795 57 774 q 138 822 105 822 l 142 822 q 205 792 176 821 q 238 723 232 764 q 245 641 245 682 q 241 564 245 606 q 238 519 239 537 q 237 500 237 500 q 241 509 238 500 q 249 531 245 517 q 279 612 262 570 q 309 680 296 655 q 418 810 357 774 q 465 822 441 822 q 509 811 487 822 q 584 734 553 787 q 625 610 615 681 q 627 581 627 596 q 626 558 627 570 q 615 516 623 532 q 584 485 602 490 q 558 480 566 480 q 526 490 541 480 q 492 537 506 503 q 465 644 479 571 q 452 706 457 686 q 443 729 447 726 q 437 732 439 732 q 429 728 433 732 q 378 657 410 714 q 322 539 346 601 q 216 85 258 378 q 203 28 210 45 q 169 -8 187 -6 q 149 -9 151 -9 q 102 21 120 -9 z "},"s":{"ha":524,"x_min":17,"x_max":514,"o":"m 227 -1 q 156 11 185 3 q 122 26 127 18 q 119 39 119 33 q 127 54 119 48 q 134 58 131 57 q 139 58 136 58 q 145 58 142 58 q 166 54 152 57 q 224 50 190 50 l 235 50 q 315 61 277 51 q 370 96 353 72 q 376 118 376 106 q 370 142 376 130 q 328 192 357 168 q 276 227 302 212 q 224 253 250 241 q 167 281 195 266 q 113 321 139 297 q 40 427 62 370 q 17 542 17 485 l 17 555 q 54 681 21 623 q 142 777 87 740 q 267 814 197 813 q 369 786 326 814 q 441 712 412 758 q 486 616 470 667 q 514 490 514 532 q 509 462 514 472 q 497 450 505 452 q 484 447 489 447 q 473 448 479 447 q 459 462 465 452 q 450 486 452 473 q 439 554 447 523 q 416 612 432 585 q 348 681 374 680 q 320 682 322 682 q 243 635 273 682 q 218 539 218 598 q 220 502 218 522 q 253 417 227 455 q 343 330 280 379 q 402 273 374 304 q 454 191 444 227 q 464 139 464 155 q 438 62 464 100 q 356 2 398 9 q 283 -5 315 -5 q 227 -1 256 -5 z "},"t":{"ha":473,"x_min":-10,"x_max":487,"o":"m 95 557 l 93 635 l 52 637 q 20 640 33 638 q 3 643 7 642 q -10 667 -10 651 l -10 669 q 5 696 -9 685 q 15 701 9 699 q 28 703 20 703 q 55 703 37 703 q 83 704 71 703 q 96 706 94 705 q 99 722 96 707 q 104 756 101 736 q 124 847 113 815 q 155 901 135 880 q 219 931 186 931 q 239 928 229 931 q 304 861 285 916 q 309 832 308 849 q 311 772 311 815 l 310 704 l 332 702 q 401 699 366 699 q 430 700 416 699 l 462 700 q 481 691 475 699 q 487 677 487 684 q 486 671 487 674 q 465 656 482 661 q 426 651 451 652 q 375 649 401 650 q 332 647 351 648 q 309 644 313 646 q 306 641 307 644 q 303 630 304 637 q 300 608 302 623 q 296 571 298 594 q 290 513 294 548 q 283 354 283 434 q 283 309 283 332 q 300 148 286 206 q 327 75 313 92 q 355 58 342 58 q 404 79 374 58 q 433 107 425 94 q 444 122 438 117 q 459 126 450 126 q 476 118 469 126 q 484 100 484 111 q 467 71 484 90 q 357 -25 392 -17 q 308 -34 321 -34 q 238 -4 269 -34 q 170 110 197 37 q 127 269 143 183 q 103 431 111 354 q 95 557 96 509 z "},"u":{"ha":680,"x_min":35,"x_max":630,"o":"m 528 -1 q 498 39 508 11 q 482 141 492 60 q 465 334 473 222 l 462 367 l 451 334 q 346 108 402 193 q 213 14 281 14 q 201 14 207 14 q 79 138 127 24 q 38 328 47 218 q 35 410 35 364 q 36 459 35 433 q 44 585 38 536 q 141 812 74 784 q 165 817 155 817 q 191 809 180 817 q 215 769 208 793 q 222 724 222 745 q 221 713 222 719 q 206 590 220 683 q 188 438 196 521 q 179 294 179 355 q 180 239 179 266 q 208 127 188 135 q 233 119 229 119 q 322 199 268 119 q 441 489 392 305 q 453 543 450 522 q 457 603 456 564 q 474 753 463 715 q 479 774 477 763 q 484 792 482 785 q 497 814 488 807 q 524 823 506 821 q 534 823 529 823 q 575 806 559 823 q 612 717 600 783 q 629 513 624 651 q 630 419 630 469 q 629 340 630 381 q 623 161 628 243 q 612 47 618 79 q 581 -1 604 14 q 554 -7 570 -7 q 528 -1 538 -7 z "},"v":{"ha":585,"x_min":28,"x_max":568,"o":"m 135 175 q 39 496 75 302 q 29 586 31 545 q 28 645 28 627 q 31 694 28 675 q 68 765 41 743 q 120 786 94 786 q 136 784 128 786 q 197 735 171 777 q 222 658 212 711 q 245 504 233 604 q 297 195 269 293 q 338 127 317 127 l 340 127 q 382 170 362 129 q 420 258 403 212 q 469 435 446 331 q 503 634 492 539 q 511 716 508 687 q 515 757 514 745 q 515 775 515 769 q 523 797 515 787 q 541 806 530 806 l 543 806 q 563 795 555 805 q 567 787 566 791 q 568 779 568 783 q 567 767 568 774 q 563 727 566 753 q 555 655 560 701 q 525 442 539 526 q 492 286 511 358 q 443 133 470 196 q 363 23 398 34 q 312 12 328 12 q 233 45 273 12 q 135 175 178 89 z "},"w":{"ha":864,"x_min":26,"x_max":829,"o":"m 549 42 q 460 170 501 86 q 431 236 445 200 q 412 296 417 272 q 408 309 410 304 q 406 315 406 315 q 402 308 404 315 q 397 290 400 300 q 359 166 380 227 q 320 76 338 106 q 252 7 283 15 q 208 0 221 0 q 142 20 174 0 q 68 106 97 49 q 26 322 26 186 q 41 503 26 402 q 81 684 54 604 q 132 784 103 752 q 200 816 160 816 q 254 798 236 816 q 275 759 271 781 q 279 721 279 738 q 277 697 279 709 q 269 644 275 668 q 212 379 229 475 q 196 212 196 283 l 196 202 q 200 149 196 168 q 215 115 204 126 q 228 107 220 107 q 252 120 238 107 q 309 225 279 140 q 395 523 339 309 q 425 595 413 588 q 450 604 435 600 q 475 608 465 608 q 509 596 492 608 q 536 568 527 585 q 564 412 551 544 q 578 289 572 329 q 593 216 584 250 q 638 118 610 152 q 690 83 665 83 q 704 86 697 83 q 757 179 736 96 q 771 305 771 240 q 770 345 771 325 q 747 515 765 431 q 707 675 728 600 l 705 679 q 670 810 677 778 q 667 834 667 824 q 681 860 667 857 q 685 861 683 861 q 718 825 701 861 q 772 656 735 781 q 801 548 791 593 q 820 448 811 504 q 826 403 824 422 q 828 360 827 385 q 829 294 829 336 l 829 274 q 825 184 829 216 q 808 110 821 146 q 747 19 787 46 q 667 -8 708 -8 q 649 -7 658 -8 q 549 42 597 -1 z "},"x":{"ha":568,"x_min":-6,"x_max":595,"o":"m 14 104 q 77 194 31 131 q 167 313 123 257 q 202 357 188 339 q 216 376 216 376 q 203 395 216 377 q 172 441 191 414 q 15 744 15 661 q 30 797 15 775 q 71 827 44 819 q 94 831 82 831 q 214 743 151 831 q 314 583 264 673 q 333 551 325 564 q 342 538 340 538 q 363 563 343 538 q 407 621 382 588 q 450 682 431 654 q 541 799 509 764 q 560 813 551 811 q 572 814 568 814 q 586 810 580 814 q 595 788 595 804 l 595 787 q 523 666 595 767 q 479 605 505 642 q 431 535 454 568 l 380 458 l 425 368 q 509 194 481 258 q 551 83 538 130 q 561 42 561 54 q 551 21 561 30 q 530 14 544 14 q 520 15 524 14 q 509 21 515 16 q 494 34 503 25 q 411 123 462 62 q 307 257 360 184 q 286 286 294 274 q 275 297 277 297 q 263 279 275 296 q 234 235 251 261 q 154 118 197 178 q 92 35 112 58 q 35 1 62 1 l 33 1 q -1 19 5 2 q -6 45 -6 37 q 14 104 -6 68 z "},"y":{"ha":676,"x_min":24,"x_max":633,"o":"m 308 -146 q 292 -141 300 -144 q 277 -135 283 -138 q 255 -121 268 -130 q 232 -102 243 -112 q 216 -87 220 -93 q 212 -71 212 -79 q 216 -56 212 -64 q 244 -39 225 -39 q 272 -49 258 -39 q 287 -58 278 -54 q 304 -64 296 -62 q 323 -66 314 -66 q 371 -44 350 -66 q 472 345 454 37 q 475 448 475 393 q 473 519 475 502 q 471 527 472 526 q 466 517 469 527 q 454 484 462 507 q 364 266 405 332 q 286 190 325 207 q 219 172 247 172 q 173 180 196 172 q 80 262 121 199 q 26 433 37 332 q 24 477 24 455 q 48 643 24 557 q 126 797 79 751 q 180 819 153 819 q 201 815 191 819 q 253 757 239 803 q 258 719 258 741 q 256 692 258 707 q 235 571 252 651 q 232 555 234 564 q 213 461 223 517 q 202 355 203 404 q 218 281 203 288 q 241 273 233 273 q 279 290 258 273 q 337 351 310 313 q 375 418 359 382 q 408 503 392 458 q 431 583 423 549 q 440 623 435 600 q 451 665 446 646 q 460 704 456 683 q 466 741 465 726 q 494 813 471 798 q 525 823 511 823 q 587 770 559 823 q 633 452 633 668 q 633 411 633 432 q 555 26 630 188 q 454 -113 510 -73 q 348 -152 398 -152 q 308 -146 328 -152 z "},"z":{"ha":549,"x_min":-11,"x_max":569,"o":"m 30 250 q 189 561 62 398 q 263 646 220 600 q 341 727 305 692 l 379 763 l 319 763 q 195 765 267 763 q 69 769 123 766 q 7 773 15 771 q -11 791 -10 781 q -11 802 -11 801 q 5 831 -11 819 q 12 834 7 833 q 30 836 18 835 q 66 837 43 836 q 129 837 90 837 q 226 838 168 838 q 334 839 289 839 q 408 838 380 839 q 491 831 463 837 q 561 801 552 821 q 569 769 569 781 q 557 727 569 749 q 505 652 538 690 q 395 522 431 568 q 326 426 359 477 q 196 199 231 285 q 178 135 178 158 q 182 117 178 123 q 214 104 190 104 q 263 113 233 104 q 455 224 334 129 q 473 236 466 233 q 488 239 479 239 q 519 217 514 239 q 522 205 522 211 q 515 187 522 196 q 464 145 504 173 q 298 43 380 85 q 160 4 222 4 q 140 5 150 4 q 46 61 71 13 q 20 164 20 110 q 30 250 20 203 z "},"{":{"ha":514,"x_min":34,"x_max":480,"o":"m 252 -186 q 165 -127 203 -172 q 113 -21 127 -82 q 105 45 105 11 q 107 80 105 62 q 147 249 114 132 q 157 290 153 271 q 163 317 161 309 q 163 325 163 321 q 161 337 163 332 q 146 346 159 344 q 106 350 134 349 q 48 361 62 351 q 34 391 34 370 q 35 399 34 395 q 70 442 36 407 q 110 490 98 471 q 124 536 121 509 q 127 563 127 548 q 123 607 127 583 q 93 734 115 651 q 84 768 87 755 q 81 797 81 781 q 80 841 80 812 l 80 882 q 82 907 81 897 q 87 927 84 917 q 182 1090 113 1024 q 217 1123 205 1114 q 250 1142 230 1133 q 334 1164 297 1164 q 396 1142 370 1164 q 412 1116 409 1129 q 414 1096 414 1103 q 411 1078 414 1086 q 397 1061 409 1074 q 368 1032 385 1048 q 319 976 336 1001 q 292 913 303 950 q 263 726 263 821 q 264 699 263 713 q 264 665 264 682 q 252 554 264 600 q 194 454 235 497 l 168 427 l 190 423 q 260 389 233 417 q 301 306 300 350 q 302 258 302 262 q 267 41 302 176 q 255 -17 256 -3 q 254 -33 254 -31 q 263 -76 254 -58 q 333 -118 283 -118 l 340 -118 q 367 -112 353 -117 q 412 -91 381 -106 q 449 -73 433 -80 q 467 -66 465 -66 q 480 -83 480 -68 q 427 -133 480 -103 q 330 -182 359 -173 q 282 -191 301 -191 q 252 -186 267 -191 z "},"|":{"ha":163,"x_min":34,"x_max":129,"o":"m 83 -127 q 60 -102 68 -123 q 47 -31 52 -81 q 40 111 43 20 q 34 405 35 280 q 34 560 34 530 q 37 888 34 741 q 47 1084 41 1059 q 71 1102 56 1102 q 85 1099 78 1102 q 98 1093 94 1097 q 106 1079 102 1088 q 114 1053 111 1068 q 118 1008 117 1038 q 120 921 119 978 q 121 770 121 865 l 121 684 q 121 524 121 600 q 126 178 122 409 q 128 52 127 102 q 129 -26 129 3 q 127 -71 128 -56 q 125 -95 127 -87 q 120 -108 123 -102 q 95 -130 111 -130 q 83 -127 90 -130 l 83 -127 z "},"}":{"ha":433,"x_min":34,"x_max":399,"o":"m 106 -176 q 65 -163 83 -172 q 40 -144 47 -155 q 34 -128 34 -135 q 41 -114 34 -122 q 46 -108 44 -110 q 52 -106 49 -106 l 55 -106 q 71 -108 60 -106 q 102 -110 89 -110 q 139 -104 126 -110 q 168 -61 160 -94 q 171 -35 171 -50 q 169 -12 171 -24 q 146 90 165 19 q 130 202 130 159 q 146 278 130 245 q 231 351 173 329 l 252 358 l 232 374 q 130 612 130 457 l 130 629 q 173 880 135 740 q 184 926 180 909 q 189 954 188 942 q 190 984 190 966 l 190 993 q 186 1029 190 1019 q 170 1050 182 1042 q 138 1060 159 1057 q 85 1086 95 1065 q 81 1101 81 1095 l 81 1103 q 86 1121 81 1109 q 157 1154 102 1149 q 170 1154 163 1154 q 284 1105 237 1154 q 349 964 336 1055 q 353 902 353 935 q 352 867 353 885 q 332 725 348 814 q 319 641 323 678 q 312 555 315 603 q 311 534 311 545 q 327 458 311 488 q 343 432 333 448 q 365 401 354 416 q 383 380 376 387 q 398 357 396 368 q 399 340 399 346 q 393 317 399 328 q 383 306 390 313 q 369 295 376 300 q 358 290 361 290 q 343 282 355 290 q 319 266 331 275 q 302 252 307 257 q 296 244 298 248 q 294 235 294 241 q 295 218 294 229 q 312 146 297 193 q 332 69 326 101 q 338 3 338 37 q 337 -32 338 -19 q 331 -58 336 -45 q 287 -134 317 -102 q 221 -172 258 -163 q 156 -181 184 -181 q 106 -176 132 -181 z "},"":{"ha":243,"x_min":34,"x_max":210,"o":"m 133 749 q 155 725 147 744 q 169 665 163 706 q 209 195 199 431 q 210 165 210 180 q 208 105 210 136 q 199 39 205 60 q 163 -16 186 -1 q 120 -32 140 -32 q 103 -30 111 -32 q 54 14 74 -22 q 34 167 34 60 l 34 187 q 48 444 36 311 q 69 651 60 576 l 71 659 q 80 716 75 699 q 96 742 86 733 q 111 750 103 748 q 123 751 119 751 q 133 749 128 751 m 194 924 q 168 864 194 884 q 115 845 141 845 q 91 848 104 845 q 49 880 60 859 q 37 923 37 901 q 38 932 37 928 q 59 982 42 964 q 90 1002 75 1000 q 113 1005 105 1005 q 142 1000 128 1005 q 179 973 164 992 q 194 924 194 954 z "},"":{"ha":606,"x_min":34,"x_max":572,"o":"m 338 -46 q 326 -25 330 -39 q 317 21 321 -10 q 315 37 315 30 q 309 72 311 61 q 303 86 307 83 q 290 90 298 89 q 283 92 286 91 q 133 198 197 115 q 45 398 68 281 q 34 509 34 452 q 41 605 34 556 q 116 797 58 712 q 281 914 174 882 l 308 922 l 309 964 l 310 1006 l 321 1016 q 344 1025 332 1025 q 351 1025 347 1025 q 373 1004 366 1021 q 378 957 378 992 l 378 920 l 397 915 q 417 908 405 913 q 439 898 429 903 q 504 843 470 880 q 558 766 538 806 q 567 747 566 751 q 568 739 568 742 q 567 732 568 736 q 563 725 566 728 q 554 723 559 723 l 551 723 q 546 724 548 723 q 536 732 542 726 q 519 753 530 739 q 445 818 481 806 q 397 827 420 827 q 302 771 342 827 q 238 627 258 708 q 218 469 218 546 q 218 445 218 457 q 254 285 221 355 q 313 207 279 233 q 382 181 348 181 q 391 182 387 181 q 436 197 410 184 q 478 226 461 210 q 495 245 485 233 q 512 268 505 256 q 527 287 520 279 q 536 296 534 295 q 547 299 542 299 q 555 298 551 299 q 568 285 564 294 q 571 277 571 279 q 572 275 572 275 q 570 267 572 271 q 562 250 568 261 q 485 148 534 195 q 457 126 471 135 q 425 108 444 117 l 391 91 l 391 50 q 388 -17 391 4 q 378 -45 385 -38 q 364 -53 370 -53 q 357 -53 358 -53 q 338 -46 347 -53 z "},"":{"ha":565,"x_min":34,"x_max":531,"o":"m 85 52 q 114 118 94 81 q 161 224 146 176 q 176 319 176 273 q 174 356 176 337 q 167 391 172 387 q 153 395 161 395 q 133 393 145 395 q 123 391 128 392 q 74 386 90 386 l 71 386 q 48 393 54 386 q 40 411 40 402 q 41 416 40 413 q 58 433 43 427 q 76 438 63 435 q 104 441 90 440 q 130 444 119 443 q 142 446 140 446 q 133 463 142 448 q 112 498 125 477 q 59 591 75 557 q 38 663 44 625 q 34 712 34 688 q 119 913 34 826 q 214 975 173 966 q 274 983 256 983 q 361 961 318 983 q 439 892 400 939 q 489 808 478 846 q 491 793 491 798 q 487 783 491 788 q 472 775 481 775 q 456 781 465 775 q 442 793 452 783 q 420 817 432 804 q 382 856 397 843 q 353 876 368 869 q 304 888 326 888 q 271 880 286 888 q 227 823 239 860 q 214 753 214 786 q 215 732 214 743 q 227 675 218 703 q 259 604 237 648 q 291 534 281 561 q 305 480 301 507 l 309 456 l 389 456 q 432 456 416 456 q 457 456 448 456 q 469 454 465 455 q 475 450 473 452 q 480 444 478 448 q 482 438 482 440 q 476 428 482 431 q 450 421 469 424 q 391 416 430 419 q 337 412 359 414 q 313 409 315 410 q 310 396 312 408 q 306 368 308 385 q 293 306 302 336 q 270 237 285 276 q 239 166 253 193 q 205 109 226 139 q 182 68 182 74 l 182 67 q 197 66 185 66 q 229 67 208 66 q 330 74 272 69 q 487 83 445 83 q 509 82 504 83 q 529 72 526 78 q 531 64 531 66 q 522 49 531 56 q 508 44 519 46 q 474 39 498 42 q 406 33 450 37 q 277 12 353 26 q 191 -3 232 3 q 126 -10 150 -10 q 89 3 96 -10 q 81 28 81 17 q 85 52 81 39 z "},"":{"ha":652,"x_min":34,"x_max":618,"o":"m 335 -12 q 326 -3 330 -9 q 319 8 322 2 q 316 29 316 16 q 320 72 316 43 q 335 155 325 100 q 346 212 342 189 q 350 237 350 236 q 338 238 350 238 q 319 238 326 238 q 288 237 306 238 q 250 237 266 237 l 237 237 q 215 241 221 237 q 209 253 210 245 l 209 255 q 229 272 209 266 q 306 280 250 278 q 319 281 313 281 q 347 283 338 281 q 359 291 356 285 q 363 310 361 296 q 365 318 363 313 q 369 343 367 332 q 370 355 370 353 q 303 330 338 330 q 276 334 290 330 q 184 382 225 346 q 123 464 148 416 q 83 557 98 511 q 47 716 60 631 q 34 865 34 801 l 34 884 q 63 971 38 951 q 108 991 87 991 q 136 985 122 991 q 190 907 172 967 q 223 713 203 860 q 250 556 237 609 q 278 471 262 503 q 336 428 302 428 l 340 428 q 389 473 376 431 q 401 528 394 492 q 453 758 425 648 q 498 907 481 867 q 542 965 523 958 q 569 972 561 972 q 601 956 587 972 q 618 888 618 935 l 618 875 q 601 760 616 833 q 480 294 558 545 l 480 292 q 484 290 481 290 q 490 290 487 290 l 496 290 q 518 291 505 290 q 545 292 536 292 q 558 291 554 292 q 565 287 562 290 q 571 277 570 282 q 572 269 572 272 q 569 260 572 264 q 551 251 565 254 q 509 246 538 248 q 479 244 491 245 q 466 241 468 243 q 458 217 465 239 q 443 163 452 195 q 393 4 403 18 q 373 -15 384 -12 q 355 -18 361 -18 q 335 -12 345 -18 z "},"":{"ha":770,"x_min":34,"x_max":736,"o":"m 318 58 q 174 133 237 75 q 62 306 91 214 q 34 476 34 397 q 38 543 34 509 q 112 758 54 665 q 260 894 170 850 q 313 915 290 909 q 359 920 336 920 l 365 920 q 428 902 408 920 q 440 897 431 899 q 463 892 450 894 q 610 822 549 880 q 687 719 658 777 q 728 597 716 661 q 736 507 736 552 q 712 358 736 431 q 596 155 667 231 q 483 75 541 97 q 376 52 425 52 q 318 58 347 52 m 254 382 q 244 455 244 418 q 250 512 244 484 q 303 630 262 579 q 414 692 345 680 q 434 693 425 693 q 486 684 460 693 q 548 648 522 672 q 572 614 562 633 q 586 583 583 595 q 590 564 590 570 q 587 555 590 558 q 578 550 583 550 q 554 565 568 550 q 519 591 539 580 q 488 603 499 603 q 447 554 465 603 q 429 438 429 505 q 439 347 429 390 q 464 297 448 308 q 488 287 479 287 q 530 310 506 287 q 553 340 542 322 q 580 363 567 363 q 589 360 585 363 q 595 355 593 358 q 599 350 598 352 q 600 345 600 348 q 593 323 600 337 q 571 287 585 306 q 541 256 557 268 q 437 215 488 215 q 420 216 429 215 q 317 269 361 224 q 254 382 272 315 m 600 231 q 670 376 652 294 q 684 503 684 442 q 675 595 684 551 q 587 768 654 703 q 492 824 544 808 q 454 831 467 831 l 452 831 q 431 820 440 831 q 411 804 425 814 q 381 783 397 793 q 231 615 280 717 q 192 495 199 549 q 184 411 184 440 q 195 316 184 363 q 266 184 212 240 q 354 130 319 134 q 399 127 389 127 q 498 151 450 127 q 600 231 555 179 z "},"":{"ha":718,"x_min":34,"x_max":684,"o":"m 247 85 q 207 120 227 102 q 174 148 186 138 q 93 228 134 182 q 41 301 53 274 q 34 332 34 315 q 35 340 34 336 q 50 397 37 361 q 168 646 95 523 q 225 734 203 709 q 269 765 247 759 q 292 768 280 768 q 311 766 301 768 q 344 744 332 760 q 360 695 360 722 q 359 677 360 686 q 316 581 352 639 q 243 473 275 515 q 165 386 212 432 l 114 333 l 121 321 q 147 286 128 309 q 189 239 166 263 q 210 215 198 229 q 231 191 222 201 q 254 164 239 181 q 283 132 269 147 q 308 103 297 116 q 322 85 319 90 q 328 66 328 75 q 326 57 328 61 q 304 45 321 45 q 294 47 299 45 q 278 58 288 50 q 247 85 267 66 m 570 85 q 530 120 551 102 q 498 148 510 138 q 417 228 458 182 q 364 301 377 274 q 358 331 358 315 q 359 340 358 335 q 374 397 361 361 q 492 646 419 523 q 549 734 528 709 q 593 765 571 759 q 616 768 604 768 q 635 766 625 768 q 668 744 656 760 q 684 695 684 722 q 683 677 684 686 q 640 581 676 639 q 568 473 600 515 q 490 386 536 432 l 438 333 l 445 321 q 471 286 452 309 q 513 239 490 263 q 534 215 522 229 q 555 191 547 201 q 578 164 564 181 q 607 132 593 147 q 632 103 621 116 q 646 85 643 90 q 652 66 652 75 q 650 57 652 61 q 629 45 645 45 q 618 47 623 45 q 602 58 612 50 q 570 85 591 66 z "},"":{"ha":769,"x_min":34,"x_max":735,"o":"m 167 142 q 59 317 84 226 q 34 481 34 408 q 40 564 34 523 q 123 774 58 680 q 260 894 181 856 q 313 915 290 909 q 359 920 336 920 l 365 920 q 428 902 408 920 q 441 897 431 900 q 464 892 451 895 q 626 807 563 876 q 717 645 688 738 q 735 517 735 585 q 733 475 735 496 q 690 298 726 384 q 592 149 654 212 q 448 61 531 85 q 377 52 412 52 q 296 64 336 52 q 167 142 222 88 m 357 254 q 326 313 335 264 q 321 338 323 325 q 316 359 318 351 q 310 388 314 368 q 302 429 306 408 q 295 480 296 459 q 293 533 293 500 q 299 600 293 578 q 321 635 304 621 q 348 650 336 649 q 363 650 360 650 q 396 640 382 650 l 407 633 l 424 650 q 489 682 457 682 q 511 678 500 682 q 559 641 537 670 q 589 575 581 611 q 590 555 590 565 q 507 425 590 479 q 492 414 498 418 q 486 409 486 410 q 497 401 486 408 q 527 387 509 395 q 564 370 545 378 q 593 344 593 357 q 589 334 593 339 q 583 329 586 330 q 574 328 580 328 l 568 328 q 531 335 556 329 q 481 349 506 342 q 446 361 456 357 l 430 370 l 429 359 q 426 343 427 354 q 423 319 425 332 q 398 256 417 269 q 383 250 389 250 q 376 250 377 250 q 357 254 366 250 m 454 470 q 465 485 459 476 q 473 502 470 494 q 483 539 481 519 q 485 571 485 559 q 484 594 485 583 q 474 624 481 617 q 468 626 471 626 q 443 605 458 626 l 433 591 l 436 545 q 438 506 437 525 q 437 477 438 486 q 436 464 436 469 q 439 456 436 456 q 454 470 444 456 m 452 134 q 610 245 553 163 q 676 397 667 328 q 686 502 686 467 q 669 627 686 567 q 503 821 624 777 q 481 827 493 824 q 461 831 469 830 q 448 831 453 831 q 440 829 444 831 q 430 819 436 826 q 408 802 423 814 q 376 779 393 791 q 310 726 342 756 q 260 667 279 695 q 232 615 246 646 q 207 557 217 585 q 184 419 184 490 q 187 367 184 393 q 248 204 199 269 q 327 141 286 156 q 399 127 368 127 q 452 134 425 127 z "},"":{"ha":345,"x_min":34,"x_max":311,"o":"m 148 656 q 64 712 94 667 q 34 811 34 757 q 35 825 34 818 q 89 947 45 914 q 103 954 94 951 q 119 958 111 957 q 135 961 126 959 q 148 966 143 964 q 173 972 158 972 q 203 968 186 972 q 311 838 311 936 q 310 819 311 829 q 285 736 305 776 q 234 675 264 696 q 168 654 203 654 q 148 656 159 654 m 245 759 q 262 837 262 794 q 237 903 262 882 q 207 922 224 913 q 177 932 191 930 l 162 934 l 162 921 q 160 905 162 916 q 154 884 157 894 q 139 791 139 836 q 140 777 139 784 q 159 722 143 734 q 187 709 174 709 q 205 713 196 709 q 245 759 229 723 z "},"":{"ha":701,"x_min":34,"x_max":667,"o":"m 124 62 q 115 85 115 72 q 115 94 115 90 q 127 118 117 99 q 153 163 138 138 q 222 295 212 261 q 225 306 225 301 q 222 317 225 310 q 211 340 218 325 q 190 377 203 353 q 163 425 176 401 q 126 492 149 449 q 82 576 104 534 l 52 635 q 34 701 34 673 q 36 719 34 711 q 62 756 45 752 q 83 760 79 760 q 137 736 108 760 q 188 671 158 718 q 245 562 217 623 q 300 437 275 498 q 330 357 326 376 q 334 334 334 347 q 325 292 334 315 q 260 181 310 255 q 205 102 226 130 q 171 65 184 75 q 144 56 158 56 q 124 62 130 56 m 458 62 q 448 85 448 72 q 449 94 448 90 q 461 118 450 99 q 487 163 472 138 q 556 295 546 261 q 558 306 558 301 q 555 317 559 310 q 544 340 552 325 q 524 377 537 353 q 496 425 510 401 q 460 492 483 449 q 416 576 437 534 l 386 635 q 368 701 368 673 q 370 719 368 711 q 395 756 378 752 q 417 760 412 760 q 470 736 441 760 q 521 671 492 718 q 578 562 550 623 q 633 437 608 498 q 664 357 659 376 q 667 334 667 347 q 659 292 667 315 q 593 181 644 255 q 539 102 559 130 q 505 65 518 75 q 478 56 492 56 q 458 62 463 56 z "},"":{"ha":563,"x_min":34,"x_max":529,"o":"m 331 766 q 359 730 348 759 q 385 593 385 662 q 367 476 385 535 q 330 392 351 429 q 259 289 309 355 q 188 183 206 220 q 170 113 170 146 l 170 109 q 230 43 172 43 q 254 45 241 43 q 331 78 286 52 q 404 132 375 104 q 438 176 420 149 q 470 229 456 203 q 484 263 484 254 q 490 277 484 270 q 502 283 496 283 q 516 280 511 283 q 525 270 522 277 q 529 248 529 260 q 513 185 529 222 q 442 81 488 129 q 348 11 402 41 q 247 -31 294 -20 q 207 -35 227 -35 q 119 -12 160 -35 q 41 89 62 18 q 34 144 34 116 q 43 211 34 177 q 92 326 58 274 q 140 393 111 357 q 235 535 195 460 q 281 697 275 610 q 284 738 282 724 q 290 758 286 752 q 301 767 294 764 q 316 771 311 771 q 331 766 321 771 m 387 922 q 361 867 384 886 q 309 848 338 848 l 307 848 q 252 873 277 848 q 229 926 229 898 q 237 961 229 943 q 279 1003 258 1000 q 309 1007 301 1007 q 359 989 336 1007 q 387 926 387 968 l 387 922 z "},"":{"ha":506,"x_min":34,"x_max":472,"o":"m 352 260 q 318 287 340 266 q 258 349 297 307 q 236 373 245 363 q 225 383 227 383 q 214 372 224 383 q 190 345 203 361 q 163 314 176 328 q 147 297 151 301 q 119 282 131 282 q 111 284 115 282 q 101 303 101 289 q 103 317 101 309 q 123 352 106 327 q 167 410 141 377 q 175 421 172 416 q 179 427 179 426 q 164 445 178 429 q 130 481 151 460 q 68 549 88 525 q 41 589 47 573 q 35 626 35 606 q 34 640 34 634 q 35 650 34 646 q 39 667 35 659 q 82 711 52 698 q 120 720 100 720 q 143 718 132 720 q 199 684 175 710 q 220 655 205 676 q 250 610 234 634 q 276 568 265 585 q 288 551 287 551 q 298 562 288 551 q 323 588 309 572 q 437 699 413 689 q 448 701 443 701 q 465 695 458 701 q 472 677 472 688 q 471 669 472 673 q 463 653 470 664 q 436 622 455 643 q 383 563 417 600 q 343 519 360 538 q 324 498 327 500 q 323 494 323 496 l 323 492 q 328 480 323 488 q 340 456 332 472 q 361 424 350 441 q 379 395 372 406 q 423 293 423 330 q 418 271 423 281 q 385 252 406 252 q 352 260 370 252 z "},"":{"ha":225,"x_min":34,"x_max":191,"o":"m 95 1 q 34 80 34 18 l 34 84 q 60 139 37 119 q 112 158 83 158 l 114 158 q 170 132 144 157 q 191 79 191 107 q 191 68 191 74 q 162 17 185 35 q 114 -1 139 -1 q 95 1 105 -1 m 95 657 q 34 737 34 674 l 34 741 q 60 795 37 777 q 112 814 83 814 l 114 814 q 170 789 144 814 q 191 736 191 764 q 191 725 191 730 q 162 673 185 691 q 114 655 139 655 q 95 657 105 655 z "},"":{"ha":244,"x_min":34,"x_max":210,"o":"m 145 968 q 168 972 155 972 q 189 968 180 972 q 210 936 208 959 l 210 930 q 198 869 210 907 q 186 831 193 852 q 176 796 180 810 q 163 755 169 768 q 146 733 157 743 q 99 713 123 713 q 76 715 94 713 q 41 750 58 718 q 34 779 34 764 q 40 809 34 790 q 60 851 47 829 q 64 857 62 854 q 111 936 94 913 q 145 968 128 960 z "},"":{"ha":244,"x_min":34,"x_max":210,"o":"m 99 718 q 77 713 90 713 l 74 713 q 55 717 63 713 q 34 749 36 726 l 34 755 q 46 816 34 777 q 58 853 52 833 q 68 888 64 874 q 81 929 75 917 q 98 952 87 942 q 146 972 121 972 q 169 970 151 972 q 203 935 186 967 q 210 906 210 920 q 204 876 210 895 q 184 834 197 857 q 180 827 182 831 q 133 749 151 772 q 99 718 116 725 z "},"":{"ha":244,"x_min":34,"x_max":210,"o":"m 145 256 q 168 260 155 260 q 189 256 180 260 q 210 224 208 247 l 210 218 q 198 157 210 195 q 186 119 193 140 q 176 84 180 98 q 163 43 169 56 q 146 21 157 31 q 98 1 123 1 q 76 3 93 1 q 41 38 58 6 q 34 67 34 52 q 40 97 34 78 q 60 139 47 116 q 64 145 62 142 q 111 224 94 201 q 145 256 128 248 z "},"":{"ha":500,"x_min":34,"x_max":466,"o":"m 99 718 q 77 713 90 713 l 74 713 q 55 717 63 713 q 34 749 36 726 l 34 755 q 46 816 34 777 q 58 853 52 833 q 68 888 64 874 q 81 929 75 917 q 98 952 87 942 q 146 972 121 972 q 169 970 151 972 q 203 935 186 967 q 210 906 210 920 q 204 876 210 895 q 184 834 197 857 q 180 827 182 831 q 133 749 151 772 q 99 718 116 725 m 355 696 q 332 691 345 691 q 311 696 320 691 q 290 728 292 705 l 290 734 q 302 795 290 756 q 313 832 307 812 q 323 867 319 853 q 337 908 331 896 q 353 930 343 921 q 400 951 376 951 q 424 948 406 951 q 459 913 441 945 q 466 884 466 899 q 459 854 466 873 q 439 812 452 836 q 435 806 437 809 q 389 727 406 751 q 355 696 372 704 z "},"":{"ha":499,"x_min":34,"x_max":465,"o":"m 400 946 q 422 951 410 951 l 426 951 q 444 947 437 951 q 465 915 463 937 l 465 909 q 453 848 465 886 q 441 810 448 830 q 431 774 435 789 q 418 734 425 747 q 401 711 412 721 q 354 691 379 691 q 331 694 349 691 q 296 728 313 696 q 290 757 290 743 q 296 788 290 768 q 316 829 302 807 q 319 836 317 833 q 367 915 349 891 q 400 946 384 939 m 145 968 q 167 972 155 972 q 189 968 180 972 q 210 936 208 959 l 210 930 q 197 869 210 907 q 186 831 192 852 q 176 796 180 810 q 163 755 169 768 q 146 733 157 743 q 99 713 123 713 q 76 715 94 713 q 40 749 58 718 q 34 778 34 764 q 40 809 34 790 q 60 851 47 828 q 64 857 62 854 q 111 936 94 913 q 145 968 128 960 z "},"":{"ha":500,"x_min":34,"x_max":466,"o":"m 401 256 q 422 260 410 260 q 445 256 435 260 q 466 224 464 247 l 466 220 q 453 157 466 197 q 441 119 448 140 q 432 84 435 98 q 418 43 425 56 q 401 21 412 31 q 354 1 379 1 q 331 3 349 1 q 296 38 313 6 q 290 66 290 52 q 296 97 290 77 q 316 139 302 116 q 319 145 318 142 q 367 224 349 201 q 401 256 384 248 m 145 277 q 168 281 155 281 l 170 281 q 189 277 181 281 q 210 245 208 268 l 210 239 q 198 178 210 217 q 186 140 193 161 q 176 105 180 120 q 163 64 169 77 q 146 42 157 52 q 98 22 123 22 q 75 24 93 22 q 41 59 58 27 q 34 88 34 73 q 40 119 34 100 q 60 160 47 138 q 64 167 62 163 q 111 245 94 222 q 145 277 128 269 z "},"":{"ha":394,"x_min":34,"x_max":360,"o":"m 246 85 q 206 120 227 102 q 174 148 186 138 q 93 228 134 182 q 40 301 53 274 q 34 331 34 315 q 35 340 34 335 q 50 397 37 361 q 168 646 95 523 q 225 734 203 709 q 269 765 247 759 q 292 768 280 768 q 311 766 301 768 q 344 744 332 760 q 360 695 360 722 q 359 677 360 686 q 316 581 352 639 q 243 473 275 515 q 165 386 212 432 l 113 333 l 121 321 q 147 286 128 309 q 188 239 166 263 q 210 215 198 229 q 231 191 222 201 q 254 164 239 181 q 283 132 269 147 q 308 103 297 116 q 321 85 319 90 q 328 66 328 75 q 326 57 328 62 q 304 45 321 45 q 294 47 299 45 q 277 58 288 50 q 246 85 267 66 z "},"":{"ha":368,"x_min":34,"x_max":334,"o":"m 124 62 q 115 85 115 72 q 115 94 115 90 q 127 118 117 99 q 153 163 138 138 q 222 295 212 261 q 225 306 224 301 q 222 317 225 310 q 211 340 218 325 q 190 377 203 353 q 163 425 176 401 q 126 492 149 449 q 82 576 104 534 l 52 635 q 34 701 34 673 q 36 719 34 711 q 62 756 45 752 q 83 760 79 760 q 136 736 108 760 q 187 671 158 718 q 245 562 216 623 q 300 437 274 498 q 330 357 326 376 q 334 334 334 347 q 325 292 334 315 q 260 181 310 255 q 205 102 226 130 q 171 65 184 75 q 144 56 158 56 q 124 62 130 56 z "},"":{"ha":692,"x_min":34,"x_max":658,"o":"m 248 128 q 165 370 191 222 l 164 381 l 118 385 q 79 389 90 387 q 62 395 67 391 q 53 410 53 402 q 60 425 53 418 q 68 431 64 429 q 83 434 73 433 q 114 435 93 435 l 159 437 l 159 446 l 159 469 q 158 484 158 477 l 157 513 l 109 515 q 72 517 88 516 q 51 521 56 519 q 35 535 35 528 q 34 543 34 543 q 47 564 34 555 q 84 573 57 570 q 138 577 111 577 q 162 582 157 577 q 169 607 167 587 q 197 730 177 666 q 398 977 266 926 q 451 985 423 985 q 501 977 479 985 q 640 818 586 945 q 654 781 652 789 q 655 770 655 773 q 650 757 655 762 q 640 751 645 751 q 609 786 627 751 q 518 882 568 864 q 492 886 505 886 q 452 871 471 886 q 405 811 424 848 q 375 744 385 774 q 340 600 349 669 l 338 581 l 378 581 q 423 577 412 581 q 439 563 435 574 q 444 547 444 554 q 434 527 444 535 q 425 523 431 524 q 409 520 420 521 q 379 519 399 519 l 333 517 l 331 507 q 330 490 330 503 q 329 465 329 478 l 329 450 q 330 437 329 442 q 340 430 332 431 q 368 428 349 429 l 380 428 q 410 426 401 427 q 424 420 419 424 q 434 407 433 412 q 434 399 434 401 q 428 384 434 390 q 420 380 425 381 q 406 378 416 378 q 376 376 395 377 l 332 375 l 334 342 q 360 191 339 267 q 397 110 372 147 q 442 67 421 72 q 470 62 463 62 q 540 96 501 62 q 604 187 575 127 q 619 217 613 207 q 629 231 625 227 q 640 234 633 234 q 654 226 650 234 q 658 214 658 222 q 656 202 658 209 q 636 151 652 186 q 534 15 586 42 q 446 -12 483 -12 q 381 2 414 -12 q 248 128 310 34 z "},"":{"ha":547,"x_min":34,"x_max":513,"o":"m 263 454 q 215 457 250 455 q 142 461 180 459 q 85 463 105 463 q 59 464 67 463 q 46 466 50 465 q 40 471 43 468 q 34 484 34 477 q 41 499 34 492 q 47 505 43 503 q 57 508 50 507 q 79 508 64 508 q 121 510 92 508 q 177 513 149 511 q 363 519 244 519 q 400 519 384 519 q 429 519 416 519 q 466 518 453 519 q 486 517 479 518 q 494 513 492 515 q 513 487 513 503 l 513 486 q 493 459 512 469 q 478 456 488 457 q 444 454 467 454 q 377 453 420 454 q 301 453 333 453 q 263 454 269 453 z "}}}
